<svg width="538.868" height="538.868" viewBox="0 0 142.576 142.576" version="1.1" id="svg5" xml:space="preserve" xmlns:xlink="http://www.w3.org/1999/xlink" xmlns="http://www.w3.org/2000/svg"><defs id="defs2"><linearGradient id="linearGradient16178"><stop style="stop-color:#aa644e;stop-opacity:1" offset="0" id="stop16174"/><stop style="stop-color:#bd2921;stop-opacity:1" offset="1" id="stop16176"/></linearGradient><linearGradient id="linearGradient6015"><stop style="stop-color:#bd7e12;stop-opacity:1" offset="0" id="stop6011"/><stop style="stop-color:#bda512;stop-opacity:1" offset="1" id="stop6013"/></linearGradient><linearGradient id="linearGradient8582"><stop style="stop-color:#e3e6e4;stop-opacity:1" offset="0" id="stop8578"/><stop style="stop-color:#c5c6c7;stop-opacity:1" offset="1" id="stop8580"/></linearGradient><linearGradient id="linearGradient13730"><stop style="stop-color:#323232;stop-opacity:1" offset="0" id="stop13726"/><stop style="stop-color:#323232;stop-opacity:1" offset="1" id="stop13728"/></linearGradient><linearGradient id="linearGradient10131"><stop style="stop-color:#d65f33;stop-opacity:1" offset="0" id="stop10127"/><stop style="stop-color:#ccdf50;stop-opacity:1" offset="1" id="stop10129"/></linearGradient><linearGradient id="linearGradient9195"><stop style="stop-color:#f0e646;stop-opacity:1" offset=".222" id="stop9191"/><stop style="stop-color:#826e00;stop-opacity:1" offset="1" id="stop9193"/></linearGradient><linearGradient id="linearGradient5339"><stop style="stop-color:#d9e3ff;stop-opacity:1" offset=".357" id="stop5335"/><stop style="stop-color:#cbcfe3;stop-opacity:.50359714" offset=".678" id="stop5337"/></linearGradient><linearGradient id="linearGradient5754-1"><stop style="stop-color:#aab7c6;stop-opacity:1" offset="0" id="stop5750"/><stop style="stop-color:#cbcfe3;stop-opacity:.32733813" offset="1" id="stop5752"/></linearGradient><linearGradient id="linearGradient4338"><stop style="stop-color:#000;stop-opacity:1" offset="0" id="stop4336"/></linearGradient><linearGradient id="linearGradient22764"><stop style="stop-color:#0f0;stop-opacity:1" offset="0" id="stop22762"/></linearGradient><linearGradient id="linearGradient2551"><stop style="stop-color:#24292f;stop-opacity:0" offset=".606" id="stop2549"/><stop style="stop-color:#24292f;stop-opacity:1" offset="1" id="stop2547"/></linearGradient><linearGradient id="linearGradient2400"><stop style="stop-color:#24292f;stop-opacity:1" offset="0" id="stop2396"/><stop style="stop-color:#24292f;stop-opacity:0" offset="1" id="stop2398"/></linearGradient><linearGradient id="linearGradient2341"><stop style="stop-color:#fff;stop-opacity:1" offset=".69" id="stop2337"/><stop style="stop-color:#f9f7f4;stop-opacity:1" offset="1" id="stop2339"/></linearGradient><linearGradient id="linearGradient4201"><stop style="stop-color:#e29d66;stop-opacity:1" offset=".705" id="stop4197"/><stop style="stop-color:#d87b39;stop-opacity:1" offset="1" id="stop4199"/></linearGradient><linearGradient id="linearGradient4281"><stop style="stop-color:#0061b9;stop-opacity:1" offset="0" id="stop4279"/></linearGradient><linearGradient id="linearGradient4275"><stop style="stop-color:#6ab7ff;stop-opacity:1" offset="0" id="stop4273"/></linearGradient><linearGradient id="linearGradient42084"><stop style="stop-color:#e29c64;stop-opacity:1" offset="0" id="stop42080"/><stop style="stop-color:#a15721;stop-opacity:1" offset="1" id="stop42082"/></linearGradient><linearGradient id="linearGradient39601"><stop style="stop-color:#e29d66;stop-opacity:1" offset="0" id="stop39597"/><stop style="stop-color:#d77733;stop-opacity:1" offset="1" id="stop39599"/></linearGradient><linearGradient id="linearGradient35143"><stop style="stop-color:#e29d66;stop-opacity:1" offset="0" id="stop35139"/><stop style="stop-color:#d77833;stop-opacity:1" offset="1" id="stop35141"/></linearGradient><linearGradient id="linearGradient33410"><stop style="stop-color:#e29d66;stop-opacity:1" offset="0" id="stop33406"/><stop style="stop-color:#d77e34;stop-opacity:1" offset="1" id="stop33408"/></linearGradient><linearGradient id="linearGradient31224"><stop style="stop-color:#8e4e1c;stop-opacity:1" offset="0" id="stop31220"/><stop style="stop-color:#e29d66;stop-opacity:0" offset="1" id="stop31222"/></linearGradient><linearGradient id="linearGradient30258"><stop style="stop-color:#fdbaa0;stop-opacity:1" offset="0" id="stop30254"/><stop style="stop-color:#fdbaa0;stop-opacity:.90980392" offset=".367" id="stop30883"/><stop style="stop-color:#fdbaa0;stop-opacity:0" offset="1" id="stop30256"/></linearGradient><linearGradient id="linearGradient19398"><stop style="stop-color:#fff;stop-opacity:.80000001" offset="0" id="stop19394"/><stop style="stop-color:#fff;stop-opacity:0" offset="1" id="stop19396"/></linearGradient><linearGradient id="linearGradient15666"><stop style="stop-color:#fff;stop-opacity:.80000001" offset="0" id="stop15662"/><stop style="stop-color:#fff;stop-opacity:0" offset="1" id="stop15664"/></linearGradient><linearGradient xlink:href="#linearGradient19398" id="linearGradient15670" x1="113.246" y1="64.624" x2="117.254" y2="69.663" gradientUnits="userSpaceOnUse" gradientTransform="translate(-31.354 27.564)"/><linearGradient xlink:href="#linearGradient15666" id="linearGradient19402" gradientUnits="userSpaceOnUse" gradientTransform="matrix(-1 0 0 1 241.602 27.564)" x1="113.246" y1="64.624" x2="117.254" y2="69.663"/><linearGradient xlink:href="#linearGradient33410" id="linearGradient33412" x1="120.543" y1="150.283" x2="120.116" y2="157.288" gradientUnits="userSpaceOnUse"/><linearGradient xlink:href="#linearGradient35143" id="linearGradient35145" x1="91.209" y1="150.559" x2="91.724" y2="157.563" gradientUnits="userSpaceOnUse"/><linearGradient xlink:href="#linearGradient39601" id="linearGradient39603" x1="74.824" y1="172.437" x2="72.282" y2="180.109" gradientUnits="userSpaceOnUse"/><linearGradient xlink:href="#linearGradient39601" id="linearGradient42075" gradientUnits="userSpaceOnUse" x1="73.7" y1="171.804" x2="69.297" y2="179.987" gradientTransform="matrix(-1 0 0 1 209.826 .283)"/><linearGradient xlink:href="#linearGradient42084" id="linearGradient42086-1" x1="92.538" y1="177.676" x2="92.597" y2="196.798" gradientUnits="userSpaceOnUse" gradientTransform="rotate(46.356 191.436 85.442)"/><linearGradient xlink:href="#linearGradient4201" id="linearGradient4203" x1="100.709" y1="126.396" x2="119.68" y2="132.196" gradientUnits="userSpaceOnUse" gradientTransform="translate(-1.587 -.046)"/><linearGradient xlink:href="#linearGradient2400" id="linearGradient2402" x1="94.694" y1="160.767" x2="99.023" y2="157.457" gradientUnits="userSpaceOnUse"/><linearGradient xlink:href="#linearGradient2400" id="linearGradient2456" gradientUnits="userSpaceOnUse" x1="91.058" y1="161.918" x2="99.447" y2="156.245" gradientTransform="matrix(-1 0 0 1 375.335 -20.522)"/><radialGradient xlink:href="#linearGradient30258" id="radialGradient30260" cx="131.122" cy="122.588" fx="131.122" fy="122.588" r="2.549" gradientUnits="userSpaceOnUse" gradientTransform="matrix(1.91222 0 0 2.15327 -119.019 -142.484)"/><radialGradient xlink:href="#linearGradient30258" id="radialGradient30260-7" cx="131.122" cy="122.588" fx="131.122" fy="122.588" r="2.549" gradientUnits="userSpaceOnUse" gradientTransform="matrix(1.91222 0 0 2.15327 -172.694 -142.427)"/><radialGradient xlink:href="#linearGradient31224" id="radialGradient31226-1" cx="99.383" cy="121.614" fx="99.383" fy="121.614" r="18.455" gradientTransform="matrix(.40011 -.01286 .0068 .2118 64.198 101.51)" gradientUnits="userSpaceOnUse"/><radialGradient xlink:href="#linearGradient2341" id="radialGradient2343" cx="104.135" cy="136.157" fx="104.135" fy="136.157" r="71.288" gradientUnits="userSpaceOnUse"/><radialGradient xlink:href="#linearGradient2551" id="radialGradient2555" cx="104.691" cy="148.893" fx="104.691" fy="148.893" r="13.593" gradientTransform="matrix(1.64193 .02649 -.01678 1.03984 -64.682 -10.929)" gradientUnits="userSpaceOnUse"/><radialGradient xlink:href="#linearGradient5754-1" id="radialGradient5756" cx="69.878" cy="43.432" fx="69.878" fy="43.432" r="37.982" gradientTransform="matrix(1.06442 0 0 .9586 -4.29 -1.322)" gradientUnits="userSpaceOnUse"/><radialGradient xlink:href="#linearGradient5339" id="radialGradient2296" gradientUnits="userSpaceOnUse" gradientTransform="matrix(1.06442 0 0 .9586 -4.29 -1.322)" cx="69.878" cy="43.432" fx="69.878" fy="43.432" r="37.982"/><radialGradient xlink:href="#linearGradient5754-1" id="radialGradient3836" gradientUnits="userSpaceOnUse" gradientTransform="matrix(1.06442 0 0 .9586 -4.29 -1.322)" cx="69.878" cy="43.432" fx="69.878" fy="43.432" r="37.982"/><radialGradient xlink:href="#linearGradient5754-1" id="radialGradient3838" gradientUnits="userSpaceOnUse" gradientTransform="matrix(1.06442 0 0 .9586 -4.29 -1.322)" cx="69.878" cy="43.432" fx="69.878" fy="43.432" r="37.982"/><radialGradient xlink:href="#linearGradient10131" id="radialGradient9161" cx="57.301" cy="42.385" fx="57.301" fy="42.385" r="9.281" gradientTransform="matrix(1 0 0 .8969 0 4.37)" gradientUnits="userSpaceOnUse"/><radialGradient xlink:href="#linearGradient10131" id="radialGradient9166" gradientUnits="userSpaceOnUse" gradientTransform="matrix(1 0 0 .8969 29.157 4.82)" cx="57.301" cy="42.385" fx="57.301" fy="42.385" r="9.281"/><radialGradient xlink:href="#linearGradient9195" id="radialGradient9197" cx="71.77" cy="43.42" fx="71.77" fy="43.42" r="28.616" gradientTransform="matrix(1 0 0 1.00423 0 -.184)" gradientUnits="userSpaceOnUse" spreadMethod="reflect"/><radialGradient xlink:href="#linearGradient13730" id="radialGradient13732" cx="104.227" cy="140.466" fx="104.227" fy="140.466" r="5.887" gradientTransform="matrix(1 0 0 1.00823 0 -1.157)" gradientUnits="userSpaceOnUse"/><radialGradient xlink:href="#linearGradient8582" id="radialGradient8584" cx="105.501" cy="101.289" fx="105.501" fy="101.289" r="28.015" gradientTransform="matrix(1 0 0 .0939 0 91.778)" gradientUnits="userSpaceOnUse"/><radialGradient xlink:href="#linearGradient6015" id="radialGradient6017" cx="75.052" cy="32.077" fx="75.052" fy="32.077" r="35.406" gradientTransform="matrix(1 0 0 .56548 0 13.938)" gradientUnits="userSpaceOnUse"/><radialGradient xlink:href="#linearGradient6015" id="radialGradient6751" cx="72.414" cy="59.201" fx="72.414" fy="59.201" r="34.129" gradientTransform="matrix(1 0 0 .57402 0 25.219)" gradientUnits="userSpaceOnUse"/><radialGradient xlink:href="#linearGradient16178" id="radialGradient16180" cx="71.879" cy="48.255" fx="71.879" fy="48.255" r="38.57" gradientTransform="matrix(1 0 0 .74987 0 12.07)" gradientUnits="userSpaceOnUse"/><radialGradient xlink:href="#linearGradient31224" id="radialGradient31226-6" cx="111.179" cy="-68.717" fx="111.179" fy="-68.717" r="18.455" gradientTransform="matrix(1.16556 -.00482 .00088 .21192 -56.92 85.708)" gradientUnits="userSpaceOnUse"/></defs><g id="layer1" transform="translate(-32.848 -64.87)" style="display:inline"><g id="layer2" style="display:inline" transform="rotate(10.193 -337.3 275.25)"><path style="display:inline;fill:#e29d66;fill-opacity:1;stroke:none;stroke-width:.600001;stroke-dasharray:none;stroke-opacity:1;paint-order:stroke fill markers" d="M74.253 97.64s-3.618 2.315-5.67 2.79c-2.711.629-5.611.49-8.347-.014-3.6-.664-7.104-2.054-10.265-3.899-4.094-2.39-7.799-5.537-10.934-9.093-2.864-3.248-5.434-6.908-6.991-10.949-.922-2.393-1.601-5.04-1.283-7.585.112-.894.366-1.942 1.095-2.472.645-.47 1.613-.462 2.382-.248 1.541.429 3.275 1.689 4.492 2.728 2.033 1.735 3.77 3.694 5.91 5.294 1.2.898 1.727 2.087 3.114 2.655 1.526.625 3.24.778 4.888.695 1.619-.083 4.358-1.36 4.358-1.36z" id="path42078-6-3"/><path style="display:inline;fill:url(#linearGradient42086-1);fill-opacity:1;stroke:none;stroke-width:.600001;stroke-dasharray:none;stroke-opacity:1;paint-order:stroke fill markers" d="M74.32 97.693s-3.619 2.315-5.67 2.79c-2.711.628-5.611.49-8.347-.015-3.6-.663-7.104-2.053-10.265-3.898-4.094-2.39-7.8-5.538-10.934-9.093-2.864-3.248-5.434-6.909-6.991-10.95-.922-2.392-1.601-5.04-1.283-7.584.112-.895.366-1.942 1.095-2.472.645-.47 1.612-.463 2.382-.249 1.541.43 3.274 1.69 4.492 2.728 2.033 1.735 3.77 3.695 5.91 5.295 1.2.897 1.727 2.087 3.114 2.655 1.526.625 3.24.778 4.888.694 1.619-.082 4.358-1.359 4.358-1.359z" id="path42078-6"/><path d="M72.18 95.517c-.494-.314 1.689 1.26.278 2.215-2.54 1.72-4.754 2.287-8.457 2.165-3.9-.128-7.364-1.007-11.083-2.811-10.098-4.897-17.976-13.24-20.923-22.516-1.256-3.954-1.011-6.237.067-7.26 1.412-1.338 2.923-1.753 7.655 2.86 4.206 4.098 5.91 6.13 9.25 7.245 1.76.587 4.45.65 5.384.124zM53.574 76.586c-.376.356-3.315.187-4.567-.262-.628-.225-1.796-1.375-3.023-2.097-1.922-1.13-2.607-1.955-5.788-5.059-.75-.732-1.568-1.449-2.275-1.963-1.183-.86-1.678-1.146-2.407-1.487-1.342-.628-3.139-.157-3.945.617-2.876 2.76-1.47 9.29 3.376 16.795 1.982 3.07 6.878 8.563 10.045 10.757 9.904 6.865 20.63 9.105 27.456 5.225l1.729-.983.8-2.851-20.216-19.244z" style="display:inline;fill:#000;stroke-width:.264583" id="path30886"/></g><path style="display:inline;fill:#e29d66;fill-opacity:1;stroke-width:.264583" d="M84.754 90.021c-.943-.024-1.605.074-2.55.553-3.56 1.804-4.53 4.689-2.154 7.645l1.15 1.38-1.337 1.905c-2.97 3.57-5.93 8.498-7.065 12.357l-.71 2.125c-.412 1.23-.381 1.992-.332 2.868.14 2.662-.376.37.194 4.34.474 1.229.094 1.094 1.24 3.507 1.003 2.175 3.886 4.913 7.002 6.832.04.024-.477 1.264-1.062 2.14-.585.876-1.712 2.52-2.58 4.31-.868 1.79-2.07 5.204-2.368 6.433-.262 1.08-.537 2.461-.84 4.207-.709 4.102-.794 9.816.135 12.893.305 1.01.522 2.4.463 2.495-.059.095-.667.56-1.58.663-2.949.332-6.648.994-7.87 1.633-2.889 1.514-3.223 5.307-.738 8.968 1.716 2.529 3.181 3.265 8.033 3.265 2.656 0 4.305-.143 12.182-1.387 13.173-2.059 15.085-1.397 26.223-1.553 2.905-.041 6.927.277 11.053.762 1.348.091 8.977 1.453 11.52 1.921 2.685.494 7.411.615 9.38.023 4.56-1.372 7.059-5.947 5.051-9.883-1.103-2.162-2.096-2.667-7.606-3.46-1.673-.24-3.646-.489-3.697-.537-.05-.048.196-1.514.534-3.015.771-3.418.79-9.403.09-13.11-.987-5.215-2.668-9.98-5.22-13.924-1.137-1.759-1.562-2.679-1.141-2.925 2.815-1.652 5.756-4.423 6.65-6.617.738-1.844.756-.967 1.188-3.394.297-2.785.084-1.774.314-3.023-.013-1.658-.45-3.333-.449-4.517-.06-.173-.413-1.283-.781-2.466-1.114-3.576-4.357-8.125-7.176-11.44-.639-.75-1.114-1.422-1.114-1.52 0-.099-.028-1.042.403-1.647 1.076-1.515 2.168-2.748 1.72-4.496-.463-1.811-1.27-2.556-3.109-3.557-1.667-.907-3.173-.776-4.641-.162-.936.39-1.413 1.627-1.801 2.647-.18.472-1.215.236-1.555.09-4.822-2.06-9.592-2.39-14.488-2.413-5.072-.024-9.264.405-15.031 2.358-.259.088-1.394-.045-1.727-.665-.282-.524-.943-1.327-1.527-1.756-.821-.398-1.463-.814-2.276-.853z" id="path6921-5"/><g id="g37910" style="display:inline"><path style="display:inline;fill:#fff;fill-opacity:.617021;stroke:none;stroke-width:.1;stroke-dasharray:none;stroke-opacity:.27234;paint-order:stroke fill markers" d="M72.007 118.682c.091-5.104 3.62-8.624 8.462-9.138 4.842-.514 5.543 3.01 10.45 2.703 4.906-.307 6.614-4.248 14.014-4.248 7.4 0 9.094 4.616 14.065 4.531 4.97-.084 4.312-2.804 8.84-2.527 5.85.357 9.11 2.635 10.132 8.405.566 3.193-1.192 9.008-3.289 11.481-2.343 2.765-6.048 3.996-9.52 5.04-.638.193-1.302.427-1.954.538a191.984 191.984 0 0 1-9.88 1.393c-5.34.62-10.694.84-16.196.169-4.268-.52-10.87-1.408-12.601-2.102-1.128-.453-7.816-3.02-10.026-6.073-2.86-4.102-2.581-5.445-2.497-10.172z" id="path17214"/><ellipse style="fill:url(#radialGradient30260-7);fill-opacity:1;stroke:none;stroke-width:.151672;stroke-dasharray:none;stroke-opacity:.27234;paint-order:stroke fill markers" id="path27302-2" cx="78.04" cy="121.539" rx="4.875" ry="5.49"/><ellipse style="fill:url(#radialGradient30260);fill-opacity:1;stroke:none;stroke-width:.151672;stroke-dasharray:none;stroke-opacity:.27234;paint-order:stroke fill markers" id="path27302" cx="131.715" cy="121.482" rx="4.875" ry="5.49"/></g><path style="display:inline;fill:#fff;fill-opacity:.62;stroke:none;stroke-width:.6;stroke-dasharray:none;stroke-opacity:.27234;paint-order:stroke fill markers" d="M86.603 135.489s.953 8.777.536 14.948c-.602 8.905-2.379 7.173-2.425 13.377-.052 6.879 11.251 9.702 21.014 9.674 8.139-.023 18.05-3.914 18.083-9.247.037-6.138-2.24-4.118-2.496-12.67-.182-6.094 2.04-16.118 2.04-16.118s-2.373.426-5.445.829c-3.149.413-7.029.806-9.694.995-3.437.244-7.645-.033-10.598-.218-2.952-.186-11.015-1.57-11.015-1.57Z" id="path19552"/><path style="display:inline;fill:url(#radialGradient31226-1);fill-opacity:1;stroke:none;stroke-width:.1;stroke-dasharray:none;stroke-opacity:.27234;paint-order:stroke fill markers" d="M100.318 126.459c-.305-.388 2.597.914 3.948.908 1.831-.007 4.584-1.167 5.343-1.275-.015.72-2.526 2.47-4.698 2.566-1.951-.04-3.575-.78-4.593-2.2z" id="path30977-9"/><path style="display:inline;fill:#000;stroke-width:.264583" d="M109.984 125.332c-.066.003-.182.085-.376.25-1.335 1.126-5.786 1.486-8.335.673-.691-.221-1.32-.3-1.396-.176-.167.27.68.752 2.124 1.206 2.797.88 8.029-.238 8.062-1.723.003-.156-.013-.233-.08-.23z" id="path2495"/><path style="display:inline;fill:#000;stroke-width:.264583" d="M82.444 112.908c-.054.008-.154.084-.31.213-1.17.97-1.453 3.497-.876 5.712.285 1.093.706 1.971 1.92 3.085 1.296 1.189 2.025 1.514 3.582 2.041 2.181.738 4.96.623 8.933-1.308 5.53-2.689 6.576-3.046 8.954-3.057 2.499-.012 3.752.365 7.979 2.397 4.038 1.94 4.2 1.907 6.309 2.346 4.576.953 8.94-1.959 9.925-6.34.395-1.756.125-3.406-.703-4.305l-.666-.722.153.661c.778 3.373.29 5.42-1.8 7.549-1.395 1.423-3.626 2.509-5.133 2.501-1.623-.009-4.186-.873-7.458-2.516-3.413-1.713-6.624-2.771-8.411-2.771-1.657 0-4.114.817-8 2.66-4.524 2.146-6.55 2.7-8.635 2.36-1.949-.317-4.197-1.835-5.248-3.544-.718-1.167-.988-1.767-.988-3.684 0-1.176.283-2.242.402-2.668.123-.444.162-.623.071-.61z" id="path2493"/><path style="display:inline;fill:#000;stroke-width:.264583" d="M104.483 109.109c-1.792.019-2.708.164-3.672.579-1.454.625-1.705 1.014-1.27 1.97.37.813 2.695 2.525 3.783 2.786 1.945.467 3.609.078 5.241-1.224.53-.423 1.103-1.108 1.275-1.523.28-.673.243-.819-.337-1.357-.987-.915-2.39-1.26-5.02-1.231z" id="path2491"/><path style="display:inline;fill:url(#linearGradient39603);fill-opacity:1;stroke:none;stroke-width:.600001;stroke-dasharray:none;stroke-opacity:1;paint-order:stroke fill markers" d="M63.268 169.087c-1.58 1.726-1.137 4.932-.388 7.15.489 1.446 2.048 2.738 3.402 3.445 3.439 1.795 7.801.553 11.672.301 2.472-.161 7.503-.24 10.276-1.707 5.087-3.305-7.908-10.055-11.31-11.601 0 0-10.696-.818-13.652 2.412z" id="path39448"/><path style="display:inline;fill:url(#linearGradient42075);fill-opacity:1;stroke:none;stroke-width:.600001;stroke-dasharray:none;stroke-opacity:1;paint-order:stroke fill markers" d="M146.559 169.37c1.58 1.726 1.045 4.719.296 6.936-.489 1.447-1.957 2.556-3.31 3.263-3.44 1.795-7.893.736-11.764.484-2.472-.161-7.29-.18-10.063-1.646-5.087-3.305 7.969-10.268 11.37-11.814 0 0 10.514-.453 13.47 2.777z" id="path39448-6"/><path style="display:inline;fill:#000;stroke-width:.264583" d="M84.683 89.517c-.943-.023-1.945.203-2.89.681-3.56 1.805-4.529 5.695-2.153 8.651l.799.994-1.314 1.578c-2.97 3.57-5.778 8.65-6.913 12.51l-.594 2.019-.814-.234a20.145 20.145 0 0 0-.851-.233c-.02 0-.098.235-.173.522-.107.407.06.593.762.846.975.353.979.363.733 2.154l-.166 1.214-1.223.08c-1.02.065-1.223.167-1.223.608 0 .46.163.523 1.247.487 1.375-.046 1.366-.057 1.652 2.056.16 1.172.134 1.233-.639 1.553-.89.37-1.205 1.516-.341 1.244 1.663-.524 1.558-.568 2.244.92 1.003 2.176 3.64 4.797 6.757 6.716.04.024-.407.76-.992 1.637-.585.876-1.607 2.344-2.475 4.134-.868 1.79-2.128 5.455-2.411 6.583-.253 1.006-.67 2.557-.972 4.303-.709 4.102-.677 10.144.252 13.22.305 1.01.486 1.921.427 2.016-.058.095-.853.257-1.766.36-2.95.331-6.392 1.133-7.612 1.772-2.89 1.514-3.248 6.09-.763 9.752 1.716 2.529 4.082 3.44 8.933 3.44 2.657 0 4.458-.213 12.335-1.457 6.937-.67 5.973-.87 17.026-1.477 5.648-.31 9.47-.09 12.666.128 2.874.196 5.306.364 7.04.602 2.408.331 9.275 1.538 11.818 2.006 2.685.494 7.493.393 9.462-.2 4.56-1.371 7.164-6.788 5.157-10.724-1.103-2.163-2.495-2.784-8.004-3.577-1.674-.24-3.085-.478-3.136-.526-.051-.048.184-1.315.523-2.816.77-3.418.825-9.075.124-12.783-.987-5.215-3.03-10.505-5.582-14.45-1.138-1.758-1.211-1.965-.79-2.212 2.815-1.652 5.487-4.422 6.38-6.616.412-1.01.587-1.19 1.026-1.051 1.673.525 2.228-.058.835-.88-.882-.52-.9-.564-.684-1.686.123-.633.228-1.3.234-1.482.008-.219.459-.33 1.335-.33 1.138 0 1.322-.073 1.322-.52 0-.424-.242-.553-1.3-.693l-1.3-.173-.089-1.448c-.087-1.416-.07-1.457.771-1.808.924-.386.938-.405.709-1.002-.116-.302-.335-.342-.94-.168-.55.158-.822.13-.9-.09-.061-.174-.413-1.284-.781-2.467-1.114-3.575-3.831-8.336-6.65-11.65-.639-.75-1.161-1.445-1.161-1.544 0-.098.352-.675.783-1.281 1.077-1.514 1.343-2.899.896-4.647-.464-1.812-1.2-2.711-3.04-3.712-1.667-.908-3.343-1.065-4.811-.451-.936.39-2.201 1.74-2.589 2.76-.18.472-.361.586-.702.44-4.822-2.06-9.863-2.696-14.92-2.752-5.257-.057-9.801.569-15.57 2.522-.258.088-.574-.197-.908-.817-.281-.524-.99-1.304-1.573-1.733-.708-.52-1.591-.794-2.534-.818zm.035 1.05c.729.005 1.4.2 1.909.6.756.594 1.663 2.221 1.987 2.401.595.33.448.728 1.796.255 8.09-2.832 19.434-3.11 26.804-.657 1.092.363 2.356.89 2.81 1.17.454.28.901.51.995.51.094 0 .45-.625.793-1.39 1.21-2.699 3.031-3.447 5.652-2.32 1.98.853 2.835 2.368 3.023 4.038.131 1.17-.335 2.258-1.437 3.228l-1.262 1.111 2.25 2.839c3.625 4.573 5.802 8.687 6.913 13.067 1.498 5.908.4 10.915-3.182 14.506-.883.886-2.09 1.915-2.68 2.287-1.214.765-4.934 2.36-6.73 2.884l-1.191.348.862.09c.475.05 1.812-.155 2.97-.455 1.16-.3 2.228-.546 2.376-.546.149 0 .634.645 1.079 1.434.529.93 1.172 1.74 1.631 2.68 1.402 2.871 2.597 5.82 3.392 8.965 1.556 6.16 1.496 13.873-.138 17.783-.228.546-.361 1.13-.297 1.299.065.169.872.377 1.794.464 4.091.385 7.503 1.088 8.645 1.783 1.052.64 1.658 1.984 1.672 3.706.012 1.602-.378 2.976-1.47 4.526-1.281 1.82-3.155 2.84-6.594 2.937-2.145.06-4.885-.31-8.514-.85-3.801-.747-7.873-1.416-11.736-1.777-12.501-1.17-24.693-.367-34.169.964l-7.408 1.055c-7.63 1.088-11.153.408-13.103-2.53-2.147-3.234-1.777-7.195.777-8.325 1.055-.467 6.359-1.451 8.754-1.625 1.285-.094 1.083-.27.376-3.65-.431-2.058-.813-2.85-.8-6.954.013-3.687.442-5.363.814-7.156.238-1.15.836-3.865 1.566-5.78.558-1.463.833-2.218 1.524-3.574.692-1.356 2.252-3.89 2.698-4.499l.812-1.108 1.4.485c.77.267 2.173.556 3.119.642 1.636.148 1.681.138.926-.225-1.47-.347-2.798-.998-4.056-1.463-4.654-1.696-8.077-5.294-9.315-9.79-.517-1.879-.463-5.917.11-8.202.55-2.196 2.332-6.62 3.106-7.714 1.463-2.535 3.206-4.957 5.091-7.213 1.103-1.303.828-1.567.077-2.256-.288-.264-.867-.729-1.178-1.386-.46-.969-.69-1.426-.492-2.659.2-1.25.613-1.7 1.634-2.635 1.053-.964 2.4-1.327 3.615-1.318z" id="path6921"/><path style="display:inline;fill:url(#linearGradient15670);fill-opacity:1;stroke:#dd8c4b;stroke-width:.1;stroke-dasharray:none;stroke-opacity:1;paint-order:stroke fill markers" d="M82.681 98.217c-.96-.65-1.754-1.53-1.964-2.497-.21-.966.238-1.932.913-2.68.676-.748 1.946-1.555 3-1.477 1.054.078 1.839.958 2.315 1.507.475.55.532.783 1.066 1.477-.182 1.319-4.704 4-5.33 3.67z" id="path12648"/><path style="display:inline;fill:url(#linearGradient19402);fill-opacity:1;stroke:#de8c4a;stroke-width:.1;stroke-dasharray:none;stroke-opacity:1;paint-order:stroke fill markers" d="M127.33 98.497c.96-.65 1.99-1.81 2.201-2.777.21-.966-.238-1.932-.913-2.68-.676-.748-1.946-1.555-3-1.477-1.054.078-1.925.785-2.4 1.335-.476.55-.662 1.192-.937 1.95.181 1.32 4.424 3.98 5.05 3.649z" id="path12648-6"/><path style="display:inline;fill:url(#radialGradient31226-6);fill-opacity:1;stroke:none;stroke-width:.0999996;stroke-dasharray:none;stroke-opacity:.27234;paint-order:stroke fill markers" d="M53.631 70.631s6.78 1.336 10.595 1.555c4.377.25 10.352.36 14.941-.066 3.9-.362 11.237-1.52 11.237-1.52s.117.033 0 .117c-.064.046-1.938 2.168-7.137 3.287-2.947.633-7.4.79-10.847.836-3.453.046-7.143-.537-8.322-.683-6.486-.806-10.624-3.301-10.624-3.301z" id="path30977-5" transform="translate(32.848 64.87)"/><g id="right_eye" style="display:inline"><path style="fill:#000;stroke-width:.264583" d="M119.888 108.12a2.33 2.33 0 0 0-.296 0c-.272.017-.97.13-1.36.742-.6.942-.468 2.5.783 2.992 2.035.8 3.72-1.411 2.36-2.986a2.117 2.117 0 0 0-1.487-.749z" id="path2489"/><ellipse style="display:inline;fill:#f7e3d3;fill-opacity:1;stroke:#000;stroke-width:0;stroke-dasharray:none;stroke-opacity:.718644;paint-order:stroke fill markers" id="path1281-6" cx="119.613" cy="109.253" rx=".565" ry=".764"/></g><g id="left_eye" style="display:inline"><path style="fill:#000;stroke-width:.264583" d="M88.962 107.85c-.271.017-.97.13-1.36.743-.6.941-.468 2.5.783 2.992 2.035.8 3.721-1.411 2.361-2.986a2.123 2.123 0 0 0-1.784-.749z" id="path2487"/><ellipse style="display:inline;fill:#f7e3d3;fill-opacity:1;stroke:#000;stroke-width:0;stroke-dasharray:none;stroke-opacity:.718644;paint-order:stroke fill markers" id="path1281-6-7" cx="88.972" cy="109.022" rx=".565" ry=".764"/></g><g id="g6432" transform="translate(-.484 -8.219)" style="display:inline"><path style="fill:#191919;fill-opacity:1;stroke:none;stroke-width:1.764;stroke-dasharray:none;stroke-opacity:1;paint-order:stroke fill markers" d="M106.734 169.306s.495-.155.64.049c.114.16.189.426.038.525a421.45 421.45 0 0 0-3.748 2.542s-.485.099-.674-.129c-.143-.171.063-.57.063-.57 1.179-.93 2.41-1.594 3.68-2.417z" id="path5974"/><path style="fill:#191919;fill-opacity:1;stroke:none;stroke-width:1.764;stroke-dasharray:none;stroke-opacity:1;paint-order:stroke fill markers" d="M106.472 172.633s.462.237.639.06c.14-.138.258-.387.127-.51-.839-.785-3.265-3.14-3.265-3.14s-.46-.18-.686.013c-.17.145-.034.572-.034.572 1.005 1.116 2.105 1.98 3.22 3.005z" id="path5974-2"/></g></g><g id="layer4" transform="translate(-33.409 -64.308)" style="display:inline"><g id="layer23" transform="translate(-9.757 -16.333) scale(1.09295)" style="display:inline"><path d="M95.702 161.936s-1.022.742-2.473 0c-1.45-.744-1.466-2.017-1.466-2.017l7.35-16.57a6.52 6.52 0 0 0 5.42 2.775z" id="Layer-1" fill="#a5d2e8" style="display:inline;fill:#c8c8c8;fill-opacity:1;stroke:#000;stroke-width:.242415;stroke-opacity:1"/><path d="m99.59 148.44-.576 1.154a.363.363 0 0 0 .158.484c.177.09.391.02.48-.157l.576-1.155a.363.363 0 0 0-.158-.483.354.354 0 0 0-.48.157z" id="Layer-2" fill="#e2f3fb" style="display:inline;fill:#000;fill-opacity:1;stroke:#000;stroke-width:.242415;stroke-opacity:1"/><ellipse style="fill:url(#radialGradient13732);fill-opacity:1;stroke:#000;stroke-width:.430578;stroke-linejoin:bevel;stroke-dasharray:none;stroke-opacity:1" id="path13719" cx="104.227" cy="140.466" rx="5.671" ry="5.72"/></g></g><g id="layer3" transform="translate(-32.848 -64.87)" style="display:inline"><g id="right_hand" style="display:inline"><path style="display:inline;fill:url(#linearGradient33412);fill-opacity:1;stroke-width:.264583" d="M130.41 151.738c-.289.221-1.764 1.253-2.101 1.566-5.466 5.09-13.39 5.462-16.587 2.406-.876-.837-1.263-2.695-.924-3.586.388-1.02 1.947-2.312 3.886-3.288 2.177-1.096 6.066-3.652 6.418-3.928.352-.276 1.188-.975 1.46-1.284.273-.31 1.787-1.927 1.96-2.901 1.087 3.178 4.207 6.152 5.888 11.015z" id="path2499-6"/><path style="fill:#000;stroke-width:.264583" d="M124.784 140.002c-.024.009-.07.094-.138.251-.135.309-.718 1.074-1.298 1.701-1.595 1.495-1.179 1.187-2.086 1.936-.777.567-2.129 1.458-4.746 3.01-.416.295-1.53.91-2.476 1.364-.946.455-1.875 1.13-2.17 1.383-.98.84-1.858 2.002-1.91 3.263-.005 1.802.583 2.593 1.135 3.208 1.1 1.308 2.715 1.98 4.016 2.186.211.05 1.337.085 2.5.077 2.205-.015 5.047-.757 7.358-1.922 2.455-1.238 5.74-3.955 5.74-4.749 0-.49-.584-.217-2.23 1.044-6.287 4.82-13.01 5.947-16.361 2.744-.876-.837-1.263-2.372-.924-3.263.388-1.02 1.796-2.334 3.735-3.31 2.177-1.096 6.174-3.673 6.526-3.95.352-.275 1.23-.995 1.503-1.305.273-.31 1.593-2.078 1.767-3.051.077-.433.099-.631.059-.617z" id="path2499"/></g><g id="left_hand" style="display:inline"><path style="display:inline;fill:url(#linearGradient35145);fill-opacity:1;stroke-width:.264583" d="M85.169 140.32c.7 2.336 2.446 3.555 2.835 3.88.318.294.885.817 1.31 1.102.383.333 4.371 2.778 5.813 3.433 3.996 1.817 5.043 4.677 2.595 6.993-1.286 1.216-3.476 1.952-5.905 1.747-3.08-.261-7.745-2.213-9.589-3.584-.246-.183-2.331-1.828-2.47-1.977.378-2.313 4.588-8.302 5.41-11.594z" id="path2497-8"/><path style="fill:#000;stroke-width:.264583" d="m84.903 139.692.182.662c.7 2.337 2.519 3.805 2.9 4.14.325.285.713.687 1.139.972.382.333 4.456 2.756 5.897 3.411 3.997 1.818 4.98 4.44 2.531 6.756-1.286 1.216-3.282 1.759-5.711 1.553-3.49-.295-6.188-1.422-9.972-4.167-2.293-1.664-2.49-1.757-2.49-1.177 0 .739 3.278 3.33 5.689 4.498 3.247 1.572 5.356 2.088 8.034 1.967 2.274.042 3.915-.756 5.429-2.139 1.113-1.177 1.253-1.402 1.486-2.9.305-1.719-1.616-3.956-4.61-5.34-1.81-.916-2.602-1.333-3.996-2.28l-1.02-.694c-.56-.37-1.362-.882-2.243-1.582-.428-.34-.524-.43-1.162-1.182-.635-.749-1.34-1.636-1.604-1.942z" id="path2497"/></g></g><g id="layer8" style="display:inline"><g id="layer18" style="display:inline"><path d="M96.891 42.577h-.532c-.658-3.447-5.337-6.12-11.02-6.12-5.28 0-9.69 2.31-10.82 5.4l-2.544-.831a1.38 1.38 0 0 0-.822 0l-2.543.831c-1.129-3.09-5.54-5.4-10.82-5.4-5.685 0-10.362 2.674-11.022 6.12h-.532c-.737 0-1.334.374-1.334.835 0 .46.597.834 1.334.834h.532c.66 3.447 5.337 6.12 11.021 6.12 6.135 0 11.109-3.113 11.109-6.955 0-.13-.02-.255-.032-.384l2.697-.882 2.698.882c-.012.128-.032.255-.032.384 0 3.84 4.974 6.955 11.108 6.955 5.683 0 10.36-2.673 11.02-6.12h.532c.737 0 1.334-.373 1.334-.835 0-.461-.597-.835-1.334-.835zM57.79 49.253c-5.145 0-9.331-2.62-9.331-5.842 0-3.221 4.186-5.842 9.331-5.842 5.146 0 9.332 2.62 9.332 5.842 0 3.222-4.186 5.842-9.332 5.842zm27.548 0c-5.145 0-9.331-2.62-9.331-5.842 0-3.221 4.186-5.84 9.331-5.84 5.146 0 9.332 2.62 9.332 5.84 0 3.22-4.186 5.842-9.332 5.842z" fill="#000" id="path10321" style="display:inline;fill:#141414;fill-opacity:1;stroke-width:1.31896"/><path d="M85.337 50.366c-56.891-33.577-28.445-16.789 0 0zM57.79 49.253c-5.145 0-9.331-2.62-9.331-5.842 0-3.221 4.186-5.842 9.331-5.842 5.146 0 9.332 2.62 9.332 5.842 0 3.222-4.186 5.842-9.332 5.842zm27.548 0c-5.145 0-9.331-2.62-9.331-5.842 0-3.221 4.186-5.84 9.331-5.84 5.146 0 9.332 2.62 9.332 5.84 0 3.22-4.186 5.842-9.332 5.842z" fill="#000" id="path13724" style="display:inline;fill:#ec3b3b;fill-opacity:.522541;stroke-width:1.31896"/></g></g><style type="text/css" id="style45626">.st0{fill:#dd0031}</style></svg>