<svg width="384.96" height="384.96" viewBox="0 0 101.854 101.854" version="1.1" id="svg5" xml:space="preserve" xmlns:xlink="http://www.w3.org/1999/xlink" xmlns="http://www.w3.org/2000/svg"><defs id="defs2"><linearGradient id="linearGradient4281"><stop style="stop-color:#0061b9;stop-opacity:1" offset="0" id="stop4279"/></linearGradient><linearGradient id="linearGradient4275"><stop style="stop-color:#6ab7ff;stop-opacity:1" offset="0" id="stop4273"/></linearGradient><linearGradient id="linearGradient42084"><stop style="stop-color:#e29c64;stop-opacity:1" offset="0" id="stop42080"/><stop style="stop-color:#a15721;stop-opacity:1" offset="1" id="stop42082"/></linearGradient><linearGradient id="linearGradient39601"><stop style="stop-color:#e29d66;stop-opacity:1" offset="0" id="stop39597"/><stop style="stop-color:#d77733;stop-opacity:1" offset="1" id="stop39599"/></linearGradient><linearGradient id="linearGradient35143"><stop style="stop-color:#e29d66;stop-opacity:1" offset="0" id="stop35139"/><stop style="stop-color:#d77833;stop-opacity:1" offset="1" id="stop35141"/></linearGradient><linearGradient id="linearGradient33410"><stop style="stop-color:#e29d66;stop-opacity:1" offset="0" id="stop33406"/><stop style="stop-color:#d77e34;stop-opacity:1" offset="1" id="stop33408"/></linearGradient><linearGradient id="linearGradient31224"><stop style="stop-color:#8e4e1c;stop-opacity:1" offset="0" id="stop31220"/><stop style="stop-color:#e29d66;stop-opacity:0" offset="1" id="stop31222"/></linearGradient><linearGradient id="linearGradient30258"><stop style="stop-color:#fdbaa0;stop-opacity:1" offset="0" id="stop30254"/><stop style="stop-color:#fdbaa0;stop-opacity:.90980392" offset=".367" id="stop30883"/><stop style="stop-color:#fdbaa0;stop-opacity:0" offset="1" id="stop30256"/></linearGradient><linearGradient id="linearGradient19398"><stop style="stop-color:#fff;stop-opacity:.80000001" offset="0" id="stop19394"/><stop style="stop-color:#fff;stop-opacity:0" offset="1" id="stop19396"/></linearGradient><linearGradient id="linearGradient15666"><stop style="stop-color:#fff;stop-opacity:.80000001" offset="0" id="stop15662"/><stop style="stop-color:#fff;stop-opacity:0" offset="1" id="stop15664"/></linearGradient><linearGradient xlink:href="#linearGradient19398" id="linearGradient15670" x1="113.246" y1="64.624" x2="117.254" y2="69.663" gradientUnits="userSpaceOnUse" gradientTransform="translate(-29.237 27.564)"/><linearGradient xlink:href="#linearGradient15666" id="linearGradient19402" gradientUnits="userSpaceOnUse" gradientTransform="matrix(-1 0 0 1 243.719 27.564)" x1="113.246" y1="64.624" x2="117.254" y2="69.663"/><linearGradient xlink:href="#linearGradient33410" id="linearGradient33412" x1="120.543" y1="150.283" x2="120.116" y2="157.288" gradientUnits="userSpaceOnUse"/><linearGradient xlink:href="#linearGradient35143" id="linearGradient35145" x1="91.209" y1="150.559" x2="91.724" y2="157.563" gradientUnits="userSpaceOnUse"/><linearGradient xlink:href="#linearGradient39601" id="linearGradient39603" x1="74.824" y1="172.437" x2="72.282" y2="180.109" gradientUnits="userSpaceOnUse" gradientTransform="translate(2.117)"/><linearGradient xlink:href="#linearGradient39601" id="linearGradient42075" gradientUnits="userSpaceOnUse" x1="73.7" y1="171.804" x2="69.297" y2="179.987" gradientTransform="matrix(-1 0 0 1 211.943 .283)"/><linearGradient xlink:href="#linearGradient42084" id="linearGradient42086-1" x1="92.538" y1="177.676" x2="92.597" y2="196.798" gradientUnits="userSpaceOnUse" gradientTransform="rotate(46.356 191.436 85.442)"/><pattern xlink:href="#pattern10242" id="pattern10249" patternTransform="scale(2.7592)"/><pattern xlink:href="#pattern10235" id="pattern10245"/><pattern xlink:href="#pattern8051" id="pattern10238"/><pattern patternUnits="userSpaceOnUse" width="270.01" height="40.89" patternTransform="translate(1013.814 364.864)" id="pattern8051"><rect style="fill:#004588;fill-opacity:1;stroke:none;stroke-width:21.7683;paint-order:stroke fill markers" id="rect4337" width="270.009" height="23.274" x="0" y="0" ry="0"/><rect style="display:inline;fill:#005eb8;fill-opacity:1;stroke:none;stroke-width:20.4027;paint-order:stroke fill markers" id="rect4337-1" width="270.009" height="20.446" x="0" y="20.445" ry="0"/></pattern><pattern patternUnits="userSpaceOnUse" width="270.01" height="40.89" patternTransform="translate(1013.814 364.864)" id="pattern10235"><path style="fill:url(#pattern10238);stroke:none" id="rect8055" d="M0 0h270.01v40.89H0z"/></pattern><pattern patternUnits="userSpaceOnUse" width="270.01" height="40.89" patternTransform="translate(1013.814 364.864)" id="pattern10242"><path style="fill:url(#pattern10245);stroke:none" id="rect10240" d="M0 0h270.01v40.89H0z"/></pattern><pattern patternUnits="userSpaceOnUse" width="745.01" height="112.824" patternTransform="translate(869.814 148.526)" id="pattern10251"><path style="fill:url(#pattern10249);stroke:none;stroke-width:2.7592" id="rect10247" d="M0 0h745.01v112.824H0z"/></pattern><radialGradient xlink:href="#linearGradient30258" id="radialGradient30260" cx="131.122" cy="122.588" fx="131.122" fy="122.588" r="2.549" gradientUnits="userSpaceOnUse" gradientTransform="matrix(1.91222 0 0 2.15327 -119.019 -142.484)"/><radialGradient xlink:href="#linearGradient30258" id="radialGradient30260-7" cx="131.122" cy="122.588" fx="131.122" fy="122.588" r="2.549" gradientUnits="userSpaceOnUse" gradientTransform="matrix(1.91222 0 0 2.15327 -172.694 -142.427)"/><radialGradient xlink:href="#linearGradient31224" id="radialGradient31226" cx="105.075" cy="122.366" fx="105.075" fy="122.366" r="18.455" gradientTransform="matrix(1.16556 -.00352 .00064 .21192 -15.342 109.933)" gradientUnits="userSpaceOnUse"/><radialGradient xlink:href="#linearGradient31224" id="radialGradient31226-1" cx="99.383" cy="121.614" fx="99.383" fy="121.614" r="18.455" gradientTransform="matrix(.40011 -.01286 .0068 .2118 66.315 101.51)" gradientUnits="userSpaceOnUse"/><clipPath clipPathUnits="userSpaceOnUse" id="clipPath1133"><path id="path1135" style="display:inline;fill:#000;fill-opacity:.294915;stroke:none;stroke-width:9.13503;stroke-dasharray:none;stroke-opacity:1;paint-order:stroke fill markers" d="M4049.961-708.57a2474.423 2474.423 0 0 1-2474.437-2474.399 2474.423 2474.423 0 0 1 2474.437-2474.437 2474.423 2474.423 0 0 1 2474.437 2474.437 2474.423 2474.423 0 0 1-2474.437 2474.4Zm0-262.119a2212.293 2212.293 0 0 0 2212.28-2212.28 2212.293 2212.293 0 0 0-2212.28-2212.317 2212.293 2212.293 0 0 0-2212.28 2212.317 2212.293 2212.293 0 0 0 2212.28 2212.28z"/></clipPath><clipPath id="clipPath18"><path d="M0 0h5102v678.547H0Z" id="path20"/></clipPath></defs><g id="layer5" style="display:inline" transform="translate(-55.35 -84.545)"><g id="g8282" style="display:inline"><path id="rect3724" style="display:inline;fill:#fff;fill-opacity:1;stroke:#cfe2ff;stroke-width:10;stroke-dasharray:none;stroke-opacity:1;paint-order:stroke fill markers" d="M86.797 89.547c-.942-.024-1.944.202-2.889.68-3.56 1.805-4.53 5.696-2.153 8.652l.798.994-1.313 1.578c-2.97 3.57-5.779 8.65-6.913 12.509l-.594 2.02-.814-.234a20.13 20.13 0 0 0-.852-.233c-.02 0-.098.234-.173.521-.106.407.061.593.763.847.975.353.978.363.733 2.153l-.167 1.215-1.222.079c-1.02.066-1.223.167-1.223.609 0 .46.162.523 1.246.486 1.375-.046 1.367-.057 1.653 2.057.159 1.171.133 1.233-.64 1.553-.89.369-1.205 1.515-.34 1.243 1.663-.524 1.558-.567 2.244.921 1.003 2.176 3.64 4.796 6.757 6.715.04.024-.407.761-.992 1.638-.586.876-1.608 2.343-2.475 4.133-.549 1.132-1.232 2.971-1.748 4.487-.965-1.035-1.751-2.242-3.662-4.92-.609-.853-1.287-1.703-1.892-2.335-1.012-1.055-1.449-1.424-2.106-1.888-1.21-.855-3.061-.71-3.992-.091-3.319 2.208-3.09 8.884.35 17.127 1.408 3.372 5.255 9.645 7.983 12.365a49.95 49.95 0 0 0 1.655 1.577c-.303.057-.657.115-1.058.16-2.95.332-6.392 1.134-7.613 1.773-2.89 1.514-3.247 6.09-.762 9.752 1.715 2.528 4.081 3.44 8.933 3.44 2.656 0 4.457-.214 12.334-1.457 6.937-.67 5.973-.87 17.026-1.477 5.649-.31 9.47-.09 12.667.128 2.874.196 5.306.364 7.04.602 2.408.33 9.274 1.537 11.818 2.005 2.684.495 7.493.393 9.461-.199 4.56-1.372 7.165-6.789 5.157-10.724-1.103-2.163-2.494-2.785-8.003-3.577-1.674-.241-3.085-.478-3.136-.526-.051-.048.184-1.315.522-2.816.771-3.418.826-9.076.124-12.784-.986-5.214-3.03-10.505-5.581-14.449-1.138-1.759-1.212-1.965-.79-2.212 2.815-1.652 5.486-4.423 6.38-6.617.411-1.01.587-1.189 1.025-1.05 1.674.525 2.228-.058.836-.88-.883-.52-.9-.565-.684-1.686.122-.633.228-1.3.234-1.482.008-.22.458-.33 1.334-.33 1.139 0 1.323-.074 1.323-.521 0-.423-.242-.552-1.3-.693l-1.3-.172-.09-1.449c-.086-1.415-.069-1.457.772-1.807.923-.386.937-.405.708-1.002-.116-.303-.335-.342-.94-.168-.55.157-.822.13-.9-.09-.06-.175-.412-1.285-.78-2.467-1.114-3.576-3.831-8.336-6.65-11.65-.639-.751-1.162-1.446-1.162-1.544 0-.099.353-.676.784-1.281 1.076-1.514 1.436-3.086.989-4.835-.464-1.811-1.294-2.524-3.133-3.525-1.667-.907-3.344-1.064-4.812-.45-.935.39-2.2 1.74-2.588 2.76-.18.471-.362.586-.702.44-4.822-2.06-9.863-2.696-14.92-2.752-5.257-.057-9.802.569-15.57 2.522-.258.087-.575-.198-.908-.818-.282-.523-.99-1.303-1.574-1.733-.707-.52-1.59-.793-2.533-.817z"/></g></g><g id="layer1" transform="translate(-55.35 -84.545)" style="display:inline"><g id="layer2" style="display:inline" transform="rotate(10.193 -336.242 287.116)"><path style="display:inline;fill:#e29d66;fill-opacity:1;stroke:none;stroke-width:.600001;stroke-dasharray:none;stroke-opacity:1;paint-order:stroke fill markers" d="M74.253 97.64s-3.618 2.315-5.67 2.79c-2.711.629-5.611.49-8.347-.014-3.6-.664-7.104-2.054-10.265-3.899-4.094-2.39-7.799-5.537-10.934-9.093-2.864-3.248-5.434-6.908-6.991-10.949-.922-2.393-1.601-5.04-1.283-7.585.112-.894.366-1.942 1.095-2.472.645-.47 1.613-.462 2.382-.248 1.541.429 3.275 1.689 4.492 2.728 2.033 1.735 3.77 3.694 5.91 5.294 1.2.898 1.727 2.087 3.114 2.655 1.526.625 3.24.778 4.888.695 1.619-.083 4.358-1.36 4.358-1.36z" id="path42078-6-3"/><path style="display:inline;fill:url(#linearGradient42086-1);fill-opacity:1;stroke:none;stroke-width:.600001;stroke-dasharray:none;stroke-opacity:1;paint-order:stroke fill markers" d="M74.32 97.693s-3.619 2.315-5.67 2.79c-2.711.628-5.611.49-8.347-.015-3.6-.663-7.104-2.053-10.265-3.898-4.094-2.39-7.8-5.538-10.934-9.093-2.864-3.248-5.434-6.909-6.991-10.95-.922-2.392-1.601-5.04-1.283-7.584.112-.895.366-1.942 1.095-2.472.645-.47 1.612-.463 2.382-.249 1.541.43 3.274 1.69 4.492 2.728 2.033 1.735 3.77 3.695 5.91 5.295 1.2.897 1.727 2.087 3.114 2.655 1.526.625 3.24.778 4.888.694 1.619-.082 4.358-1.359 4.358-1.359z" id="path42078-6"/><path d="M72.18 95.517c-.494-.314 1.689 1.26.278 2.215-2.54 1.72-4.754 2.287-8.457 2.165-3.9-.128-7.364-1.007-11.083-2.811-10.098-4.897-17.976-13.24-20.923-22.516-1.256-3.954-1.011-6.237.067-7.26 1.412-1.338 2.923-1.753 7.655 2.86 4.206 4.098 5.91 6.13 9.25 7.245 1.76.587 4.45.65 5.384.124zM53.574 76.586c-.376.356-3.315.187-4.567-.262-.628-.225-1.796-1.375-3.023-2.097-1.922-1.13-2.607-1.955-5.788-5.059-.75-.732-1.568-1.449-2.275-1.963-1.183-.86-1.678-1.146-2.407-1.487-1.342-.628-3.139-.157-3.945.617-2.876 2.76-1.47 9.29 3.376 16.795 1.982 3.07 6.878 8.563 10.045 10.757 9.904 6.865 20.63 9.105 27.456 5.225l1.729-.983.8-2.851-20.216-19.244z" style="display:inline;fill:#000;stroke-width:.264583" id="path30886"/></g><path style="display:inline;fill:#e29d66;fill-opacity:1;stroke-width:.264583" d="M86.87 90.021c-.942-.024-1.604.074-2.549.553-3.56 1.804-4.53 4.689-2.154 7.645l1.15 1.38-1.337 1.905c-2.97 3.57-5.93 8.498-7.065 12.357l-.711 2.125c-.411 1.23-.38 1.992-.332 2.868.14 2.662-.376.37.194 4.34.475 1.229.094 1.094 1.24 3.507 1.004 2.175 3.886 4.913 7.003 6.832.04.024-.477 1.264-1.062 2.14-.585.876-1.713 2.52-2.58 4.31-.868 1.79-2.07 5.204-2.368 6.433-.262 1.08-.538 2.461-.84 4.207-.709 4.102-.794 9.816.135 12.893.305 1.01.521 2.4.463 2.495-.06.095-.667.56-1.58.663-2.95.332-6.649.994-7.87 1.633-2.89 1.514-3.224 5.307-.739 8.968 1.716 2.529 3.182 3.265 8.033 3.265 2.657 0 4.306-.143 12.183-1.387 13.172-2.059 15.085-1.397 26.223-1.553 2.905-.041 6.926.277 11.053.762 1.348.091 8.976 1.453 11.52 1.921 2.684.494 7.41.615 9.38.023 4.559-1.372 7.058-5.947 5.051-9.883-1.103-2.162-2.097-2.667-7.606-3.46-1.674-.24-3.646-.489-3.697-.537-.051-.048.196-1.514.534-3.015.77-3.418.79-9.403.089-13.11-.986-5.215-2.668-9.98-5.22-13.924-1.137-1.759-1.561-2.679-1.14-2.925 2.815-1.652 5.756-4.423 6.65-6.617.737-1.844.756-.967 1.188-3.394.297-2.785.084-1.774.314-3.023-.013-1.658-.45-3.333-.449-4.517-.061-.173-.413-1.283-.781-2.466-1.114-3.576-4.357-8.125-7.176-11.44-.639-.75-1.115-1.422-1.115-1.52 0-.099-.027-1.042.403-1.647 1.077-1.515 2.169-2.748 1.721-4.496-.463-1.811-1.27-2.556-3.11-3.557-1.667-.907-3.172-.776-4.64-.162-.936.39-1.413 1.627-1.801 2.647-.18.472-1.215.236-1.556.09-4.822-2.06-9.592-2.39-14.487-2.413-5.072-.024-9.264.405-15.032 2.358-.258.088-1.393-.045-1.727-.665-.281-.524-.943-1.327-1.527-1.756-.82-.398-1.462-.814-2.275-.853z" id="path6921-5"/><g id="g37910" style="display:inline" transform="translate(2.117)"><path style="display:inline;fill:#fff;fill-opacity:.617021;stroke:none;stroke-width:.1;stroke-dasharray:none;stroke-opacity:.27234;paint-order:stroke fill markers" d="M72.007 118.682c.091-5.104 3.62-8.624 8.462-9.138 4.842-.514 5.543 3.01 10.45 2.703 4.906-.307 6.614-4.248 14.014-4.248 7.4 0 9.094 4.616 14.065 4.531 4.97-.084 4.312-2.804 8.84-2.527 5.85.357 9.11 2.635 10.132 8.405.566 3.193-1.192 9.008-3.289 11.481-2.343 2.765-6.048 3.996-9.52 5.04-.638.193-1.302.427-1.954.538a191.984 191.984 0 0 1-9.88 1.393c-5.34.62-10.694.84-16.196.169-4.268-.52-10.87-1.408-12.601-2.102-1.128-.453-7.816-3.02-10.026-6.073-2.86-4.102-2.581-5.445-2.497-10.172z" id="path17214"/><ellipse style="fill:url(#radialGradient30260-7);fill-opacity:1;stroke:none;stroke-width:.151672;stroke-dasharray:none;stroke-opacity:.27234;paint-order:stroke fill markers" id="path27302-2" cx="78.04" cy="121.539" rx="4.875" ry="5.49"/><ellipse style="fill:url(#radialGradient30260);fill-opacity:1;stroke:none;stroke-width:.151672;stroke-dasharray:none;stroke-opacity:.27234;paint-order:stroke fill markers" id="path27302" cx="131.715" cy="121.482" rx="4.875" ry="5.49"/></g><path style="display:inline;fill:#fff;fill-opacity:.62;stroke:none;stroke-width:.6;stroke-dasharray:none;stroke-opacity:.27234;paint-order:stroke fill markers" d="M88.72 135.489s.953 8.777.536 14.948c-.603 8.905-2.38 7.173-2.426 13.377-.051 6.879 11.252 9.702 21.015 9.674 8.138-.023 18.05-3.914 18.082-9.247.038-6.138-2.24-4.118-2.495-12.67-.182-6.094 2.04-16.118 2.04-16.118s-2.374.426-5.446.829a182.16 182.16 0 0 1-9.693.995c-3.437.244-7.646-.033-10.598-.218-2.952-.186-11.015-1.57-11.015-1.57Z" id="path19552"/><path style="display:inline;fill:url(#radialGradient31226-1);fill-opacity:1;stroke:none;stroke-width:.1;stroke-dasharray:none;stroke-opacity:.27234;paint-order:stroke fill markers" d="M102.435 126.459c-.305-.388 2.597.914 3.947.908 1.832-.007 4.584-1.167 5.344-1.275-.015.72-2.527 2.47-4.699 2.566-1.95-.04-3.574-.78-4.592-2.2z" id="path30977-9"/><path style="display:inline;fill:#000;stroke-width:.264583" d="M112.1 125.332c-.065.003-.181.085-.375.25-1.336 1.126-5.786 1.486-8.335.673-.691-.221-1.32-.3-1.396-.176-.168.27.68.752 2.124 1.206 2.797.88 8.028-.238 8.062-1.723.003-.156-.013-.233-.08-.23z" id="path2495"/><path style="display:inline;fill:#000;stroke-width:.264583" d="M84.561 112.908c-.054.008-.154.084-.311.213-1.168.97-1.452 3.497-.875 5.712.285 1.093.706 1.971 1.92 3.085 1.295 1.189 2.024 1.514 3.582 2.041 2.181.738 4.96.623 8.932-1.308 5.531-2.689 6.577-3.046 8.955-3.057 2.499-.012 3.751.365 7.979 2.397 4.038 1.94 4.2 1.907 6.308 2.346 4.577.953 8.94-1.959 9.925-6.34.395-1.756.126-3.406-.702-4.305l-.666-.722.153.661c.778 3.373.29 5.42-1.8 7.549-1.396 1.423-3.626 2.509-5.134 2.501-1.623-.009-4.186-.873-7.457-2.516-3.413-1.713-6.624-2.771-8.412-2.771-1.657 0-4.113.817-8 2.66-4.524 2.146-6.55 2.7-8.634 2.36-1.95-.317-4.197-1.835-5.249-3.544-.718-1.167-.987-1.767-.987-3.684 0-1.176.283-2.242.401-2.668.124-.444.162-.623.072-.61z" id="path2493"/><path style="display:inline;fill:#000;stroke-width:.264583" d="M106.6 109.109c-1.793.019-2.708.164-3.673.579-1.453.625-1.705 1.014-1.27 1.97.371.813 2.696 2.525 3.784 2.786 1.944.467 3.608.078 5.241-1.224.53-.423 1.103-1.108 1.275-1.523.279-.673.243-.819-.338-1.357-.987-.915-2.39-1.26-5.02-1.231z" id="path2491"/><path style="display:inline;fill:url(#linearGradient39603);fill-opacity:1;stroke:none;stroke-width:.600001;stroke-dasharray:none;stroke-opacity:1;paint-order:stroke fill markers" d="M65.384 169.087c-1.58 1.726-1.136 4.932-.387 7.15.488 1.446 2.048 2.738 3.402 3.445 3.438 1.795 7.8.553 11.672.301 2.472-.161 7.503-.24 10.276-1.707 5.087-3.305-7.908-10.055-11.31-11.601 0 0-10.696-.818-13.653 2.412z" id="path39448"/><path style="display:inline;fill:url(#linearGradient42075);fill-opacity:1;stroke:none;stroke-width:.600001;stroke-dasharray:none;stroke-opacity:1;paint-order:stroke fill markers" d="M148.676 169.37c1.58 1.726 1.045 4.719.296 6.936-.489 1.447-1.957 2.556-3.311 3.263-3.439 1.795-7.893.736-11.763.484-2.472-.161-7.29-.18-10.063-1.646-5.087-3.305 7.968-10.268 11.37-11.814 0 0 10.514-.453 13.47 2.777z" id="path39448-6"/><path style="display:inline;fill:#000;stroke-width:.264583" d="M86.8 89.517c-.943-.023-1.945.203-2.89.681-3.56 1.805-4.53 5.695-2.153 8.651l.799.994-1.314 1.578c-2.97 3.57-5.779 8.65-6.913 12.51l-.594 2.019-.814-.234a20.145 20.145 0 0 0-.852-.233c-.02 0-.098.235-.173.522-.106.407.061.593.763.846.975.353.978.363.733 2.154l-.167 1.214-1.222.08c-1.02.065-1.223.167-1.223.608 0 .46.162.523 1.246.487 1.376-.046 1.367-.057 1.653 2.056.159 1.172.133 1.233-.64 1.553-.89.37-1.205 1.516-.34 1.244 1.663-.524 1.558-.568 2.244.92 1.003 2.176 3.64 4.797 6.757 6.716.04.024-.407.76-.992 1.637-.586.876-1.608 2.344-2.475 4.134-.868 1.79-2.128 5.455-2.412 6.583-.252 1.006-.669 2.557-.971 4.303-.71 4.102-.677 10.144.251 13.22.305 1.01.487 1.921.428 2.016-.059.095-.853.257-1.766.36-2.95.331-6.392 1.133-7.613 1.772-2.89 1.514-3.247 6.09-.762 9.752 1.715 2.529 4.081 3.44 8.933 3.44 2.656 0 4.457-.213 12.335-1.457 6.936-.67 5.972-.87 17.025-1.477 5.649-.31 9.47-.09 12.667.128 2.874.196 5.306.364 7.04.602 2.408.331 9.274 1.538 11.818 2.006 2.684.494 7.493.393 9.461-.2 4.56-1.371 7.165-6.788 5.157-10.724-1.103-2.163-2.494-2.784-8.003-3.577-1.674-.24-3.085-.478-3.136-.526-.051-.048.184-1.315.522-2.816.771-3.418.826-9.075.124-12.783-.986-5.215-3.03-10.505-5.581-14.45-1.138-1.758-1.211-1.965-.79-2.212 2.815-1.652 5.486-4.422 6.38-6.616.411-1.01.587-1.19 1.025-1.051 1.674.525 2.228-.058.836-.88-.883-.52-.9-.564-.684-1.686.122-.633.228-1.3.234-1.482.008-.219.458-.33 1.334-.33 1.139 0 1.323-.073 1.323-.52 0-.424-.242-.553-1.3-.693l-1.3-.173-.09-1.448c-.086-1.416-.069-1.457.772-1.808.923-.386.937-.405.708-1.002-.116-.302-.335-.342-.94-.168-.55.158-.822.13-.9-.09-.06-.174-.412-1.284-.78-2.467-1.114-3.575-3.831-8.336-6.65-11.65-.639-.75-1.162-1.445-1.162-1.544 0-.098.353-.675.784-1.281 1.076-1.514 1.343-2.899.895-4.647-.463-1.812-1.2-2.711-3.039-3.712-1.667-.908-3.344-1.065-4.812-.451-.935.39-2.2 1.74-2.588 2.76-.18.472-.362.586-.702.44-4.822-2.06-9.863-2.696-14.92-2.752-5.257-.057-9.802.569-15.57 2.522-.258.088-.575-.197-.908-.817-.281-.524-.99-1.304-1.574-1.733-.707-.52-1.59-.794-2.533-.818zm.034 1.05c.73.005 1.401.2 1.91.6.756.594 1.662 2.221 1.986 2.401.595.33.448.728 1.797.255 8.09-2.832 19.434-3.11 26.804-.657 1.091.363 2.356.89 2.81 1.17.453.28.901.51.995.51.094 0 .45-.625.793-1.39 1.21-2.699 3.031-3.447 5.652-2.32 1.98.853 2.835 2.368 3.022 4.038.132 1.17-.335 2.258-1.437 3.228l-1.26 1.111 2.249 2.839c3.624 4.573 5.801 8.687 6.912 13.067 1.499 5.908.4 10.915-3.18 14.506-.884.886-2.09 1.915-2.682 2.287-1.213.765-4.934 2.36-6.73 2.884l-1.19.348.862.09c.475.05 1.811-.155 2.97-.455 1.159-.3 2.228-.546 2.376-.546.148 0 .634.645 1.079 1.434.529.93 1.172 1.74 1.631 2.68 1.402 2.871 2.597 5.82 3.392 8.965 1.555 6.16 1.496 13.873-.138 17.783-.228.546-.362 1.13-.297 1.299.065.169.872.377 1.794.464 4.09.385 7.503 1.088 8.645 1.783 1.051.64 1.658 1.984 1.671 3.706.013 1.602-.377 2.976-1.47 4.526-1.28 1.82-3.154 2.84-6.593 2.937-2.146.06-4.885-.31-8.514-.85-3.801-.747-7.873-1.416-11.736-1.777-12.501-1.17-24.693-.367-34.17.964l-7.408 1.055c-7.628 1.088-11.153.408-13.102-2.53-2.147-3.234-1.778-7.195.777-8.325 1.055-.467 6.358-1.451 8.754-1.625 1.285-.094 1.083-.27.375-3.65-.43-2.058-.813-2.85-.799-6.954.013-3.687.441-5.363.813-7.156.239-1.15.837-3.865 1.567-5.78.558-1.463.833-2.218 1.524-3.574.691-1.356 2.251-3.89 2.698-4.499l.812-1.108 1.4.485c.769.267 2.173.556 3.118.642 1.637.148 1.682.138.926-.225-1.47-.347-2.797-.998-4.056-1.463-4.654-1.696-8.077-5.294-9.314-9.79-.517-1.879-.463-5.917.11-8.202.55-2.196 2.331-6.62 3.106-7.714 1.463-2.535 3.205-4.957 5.09-7.213 1.103-1.303.828-1.567.077-2.256-.288-.264-.866-.729-1.178-1.386-.459-.969-.69-1.426-.492-2.659.2-1.25.614-1.7 1.635-2.635 1.052-.964 2.399-1.327 3.614-1.318z" id="path6921"/><path style="display:inline;fill:url(#linearGradient15670);fill-opacity:1;stroke:#dd8c4b;stroke-width:.1;stroke-dasharray:none;stroke-opacity:1;paint-order:stroke fill markers" d="M84.798 98.217c-.96-.65-1.754-1.53-1.964-2.497-.211-.966.237-1.932.913-2.68.676-.748 1.946-1.555 3-1.477 1.054.078 1.839.958 2.314 1.507.476.55.532.783 1.066 1.477-.181 1.319-4.704 4-5.33 3.67z" id="path12648"/><path style="display:inline;fill:url(#linearGradient19402);fill-opacity:1;stroke:#de8c4a;stroke-width:.1;stroke-dasharray:none;stroke-opacity:1;paint-order:stroke fill markers" d="M129.447 98.497c.96-.65 1.99-1.81 2.201-2.777.21-.966-.238-1.932-.914-2.68-.675-.748-1.945-1.555-3-1.477-1.053.078-1.924.785-2.4 1.335-.476.55-.661 1.192-.937 1.95.182 1.32 4.424 3.98 5.05 3.649z" id="path12648-6"/><path style="display:inline;fill:url(#radialGradient31226);fill-opacity:1;stroke:none;stroke-width:.1;stroke-dasharray:none;stroke-opacity:.27234;paint-order:stroke fill markers" d="M88.64 135.478s6.78 1.336 10.595 1.555c4.377.25 10.353.36 14.942-.066 3.898-.362 11.236-1.52 11.236-1.52s.118.033 0 .117c-.064.046-1.937 2.168-7.136 3.287-2.947.633-7.4.79-10.848.836-3.452.046-7.142-.537-8.322-.683-6.486-.806-10.623-3.301-10.623-3.301z" id="path30977"/><g id="right_eye" style="display:inline" transform="translate(2.117)"><path style="fill:#000;stroke-width:.264583" d="M119.888 108.12a2.33 2.33 0 0 0-.296 0c-.272.017-.97.13-1.36.742-.6.942-.468 2.5.783 2.992 2.035.8 3.72-1.411 2.36-2.986a2.117 2.117 0 0 0-1.487-.749z" id="path2489"/><ellipse style="display:inline;fill:#f7e3d3;fill-opacity:1;stroke:#000;stroke-width:0;stroke-dasharray:none;stroke-opacity:.718644;paint-order:stroke fill markers" id="path1281-6" cx="119.613" cy="109.253" rx=".565" ry=".764"/></g><g id="left_eye" style="display:inline" transform="translate(2.117)"><path style="fill:#000;stroke-width:.264583" d="M88.962 107.85c-.271.017-.97.13-1.36.743-.6.941-.468 2.5.783 2.992 2.035.8 3.721-1.411 2.361-2.986a2.123 2.123 0 0 0-1.784-.749z" id="path2487"/><ellipse style="display:inline;fill:#f7e3d3;fill-opacity:1;stroke:#000;stroke-width:0;stroke-dasharray:none;stroke-opacity:.718644;paint-order:stroke fill markers" id="path1281-6-7" cx="88.972" cy="109.022" rx=".565" ry=".764"/></g></g><g id="layer4" transform="translate(-55.912 -83.984)" style="display:inline"><g id="Amadeus" transform="translate(-51.139 37.263) scale(.75442)" style="display:inline"><circle style="fill:#1b69bc;fill-opacity:1;stroke:#040d18;stroke-width:2.33821;stroke-dasharray:none;stroke-opacity:1;paint-order:stroke fill markers" id="path5543" cx="210.631" cy="152.738" r="17.735"/><path d="M214.787 158.645c-.98.386-3.355 1.157-5.105 1.157-1.9 0-3.324-.653-3.324-2.73 0-1.81.978-2.85 3.591-2.939l4.838-.178zm-2.731-16.592c-4.096 0-7.301 1.01-8.548 1.633l.98 3.443S207.634 146 210.72 146c2.642 0 4.007.742 4.007 3.354v1.484h-4.007c-6.796 0-8.815 3.116-8.815 6.56 0 4.57 3.562 6.024 6.797 6.024 3.77 0 5.966-1.573 6.233-1.573.208 0 .98.831 4.422.831v-14.543c0-4.363-2.7-6.085-7.301-6.085z" id="path22" style="fill:#fff;fill-opacity:1;fill-rule:nonzero;stroke:#dd8c4b;stroke-width:.0314935;stroke-opacity:1" clip-path="url(#clipPath5484)"/></g></g><g id="layer3" transform="translate(-55.35 -84.545)" style="display:inline"><g id="right_hand" style="display:inline"><path style="display:inline;fill:url(#linearGradient33412);fill-opacity:1;stroke-width:.264583" d="M130.41 151.738c-.289.221-1.764 1.253-2.101 1.566-5.466 5.09-13.39 5.462-16.587 2.406-.876-.837-1.263-2.695-.924-3.586.388-1.02 1.947-2.312 3.886-3.288 2.177-1.096 6.066-3.652 6.418-3.928.352-.276 1.188-.975 1.46-1.284.273-.31 1.787-1.927 1.96-2.901 1.087 3.178 4.207 6.152 5.888 11.015z" id="path2499-6"/><path style="fill:#000;stroke-width:.264583" d="M124.784 140.002c-.024.009-.07.094-.138.251-.135.309-.718 1.074-1.298 1.701-1.595 1.495-1.179 1.187-2.086 1.936-.777.567-2.129 1.458-4.746 3.01-.416.295-1.53.91-2.476 1.364-.946.455-1.875 1.13-2.17 1.383-.98.84-1.858 2.002-1.91 3.263-.005 1.802.583 2.593 1.135 3.208 1.1 1.308 2.715 1.98 4.016 2.186.211.05 1.337.085 2.5.077 2.205-.015 5.047-.757 7.358-1.922 2.455-1.238 5.74-3.955 5.74-4.749 0-.49-.584-.217-2.23 1.044-6.287 4.82-13.01 5.947-16.361 2.744-.876-.837-1.263-2.372-.924-3.263.388-1.02 1.796-2.334 3.735-3.31 2.177-1.096 6.174-3.673 6.526-3.95.352-.275 1.23-.995 1.503-1.305.273-.31 1.593-2.078 1.767-3.051.077-.433.099-.631.059-.617z" id="path2499"/></g><g id="left_hand" style="display:inline"><path style="display:inline;fill:url(#linearGradient35145);fill-opacity:1;stroke-width:.264583" d="M85.169 140.32c.7 2.336 2.446 3.555 2.835 3.88.318.294.885.817 1.31 1.102.383.333 4.371 2.778 5.813 3.433 3.996 1.817 5.043 4.677 2.595 6.993-1.286 1.216-3.476 1.952-5.905 1.747-3.08-.261-7.745-2.213-9.589-3.584-.246-.183-2.331-1.828-2.47-1.977.378-2.313 4.588-8.302 5.41-11.594z" id="path2497-8"/><path style="fill:#000;stroke-width:.264583" d="m84.903 139.692.182.662c.7 2.337 2.519 3.805 2.9 4.14.325.285.713.687 1.139.972.382.333 4.456 2.756 5.897 3.411 3.997 1.818 4.98 4.44 2.531 6.756-1.286 1.216-3.282 1.759-5.711 1.553-3.49-.295-6.188-1.422-9.972-4.167-2.293-1.664-2.49-1.757-2.49-1.177 0 .739 3.278 3.33 5.689 4.498 3.247 1.572 5.356 2.088 8.034 1.967 2.274.042 3.915-.756 5.429-2.139 1.113-1.177 1.253-1.402 1.486-2.9.305-1.719-1.616-3.956-4.61-5.34-1.81-.916-2.602-1.333-3.996-2.28l-1.02-.694c-.56-.37-1.362-.882-2.243-1.582-.428-.34-.524-.43-1.162-1.182-.635-.749-1.34-1.636-1.604-1.942z" id="path2497"/></g></g><style type="text/css" id="style45626">.st0{fill:#dd0031}.st1{fill:#c3002f}.st2{fill:#fff}</style></svg>