<svg width="538.868" height="538.868" viewBox="0 0 142.576 142.576" version="1.1" id="svg5" xml:space="preserve" xmlns:xlink="http://www.w3.org/1999/xlink" xmlns="http://www.w3.org/2000/svg"><defs id="defs2"><linearGradient id="linearGradient16178"><stop style="stop-color:#aa644e;stop-opacity:1" offset="0" id="stop16174"/><stop style="stop-color:#bd2921;stop-opacity:1" offset="1" id="stop16176"/></linearGradient><linearGradient id="linearGradient6015"><stop style="stop-color:#bd7e12;stop-opacity:1" offset="0" id="stop6011"/><stop style="stop-color:#bda512;stop-opacity:1" offset="1" id="stop6013"/></linearGradient><linearGradient id="linearGradient8582"><stop style="stop-color:#e3e6e4;stop-opacity:1" offset="0" id="stop8578"/><stop style="stop-color:#c5c6c7;stop-opacity:1" offset="1" id="stop8580"/></linearGradient><linearGradient id="linearGradient13730"><stop style="stop-color:#323232;stop-opacity:1" offset="0" id="stop13726"/><stop style="stop-color:#323232;stop-opacity:1" offset="1" id="stop13728"/></linearGradient><linearGradient id="linearGradient10131"><stop style="stop-color:#d65f33;stop-opacity:1" offset="0" id="stop10127"/><stop style="stop-color:#ccdf50;stop-opacity:1" offset="1" id="stop10129"/></linearGradient><linearGradient id="linearGradient9195"><stop style="stop-color:#f0e646;stop-opacity:1" offset=".222" id="stop9191"/><stop style="stop-color:#826e00;stop-opacity:1" offset="1" id="stop9193"/></linearGradient><linearGradient id="linearGradient5339"><stop style="stop-color:#d9e3ff;stop-opacity:1" offset=".357" id="stop5335"/><stop style="stop-color:#cbcfe3;stop-opacity:.50359714" offset=".678" id="stop5337"/></linearGradient><linearGradient id="linearGradient5754-1"><stop style="stop-color:#aab7c6;stop-opacity:1" offset="0" id="stop5750"/><stop style="stop-color:#cbcfe3;stop-opacity:.32733813" offset="1" id="stop5752"/></linearGradient><linearGradient id="linearGradient4338"><stop style="stop-color:#000;stop-opacity:1" offset="0" id="stop4336"/></linearGradient><linearGradient id="linearGradient22764"><stop style="stop-color:#0f0;stop-opacity:1" offset="0" id="stop22762"/></linearGradient><linearGradient id="linearGradient2551"><stop style="stop-color:#24292f;stop-opacity:0" offset=".606" id="stop2549"/><stop style="stop-color:#24292f;stop-opacity:1" offset="1" id="stop2547"/></linearGradient><linearGradient id="linearGradient2400"><stop style="stop-color:#24292f;stop-opacity:1" offset="0" id="stop2396"/><stop style="stop-color:#24292f;stop-opacity:0" offset="1" id="stop2398"/></linearGradient><linearGradient id="linearGradient2341"><stop style="stop-color:#fff;stop-opacity:1" offset=".69" id="stop2337"/><stop style="stop-color:#f9f7f4;stop-opacity:1" offset="1" id="stop2339"/></linearGradient><linearGradient id="linearGradient4201"><stop style="stop-color:#e29d66;stop-opacity:1" offset=".705" id="stop4197"/><stop style="stop-color:#d87b39;stop-opacity:1" offset="1" id="stop4199"/></linearGradient><linearGradient id="linearGradient4281"><stop style="stop-color:#0061b9;stop-opacity:1" offset="0" id="stop4279"/></linearGradient><linearGradient id="linearGradient4275"><stop style="stop-color:#6ab7ff;stop-opacity:1" offset="0" id="stop4273"/></linearGradient><linearGradient id="linearGradient42084"><stop style="stop-color:#e29c64;stop-opacity:1" offset="0" id="stop42080"/><stop style="stop-color:#a15721;stop-opacity:1" offset="1" id="stop42082"/></linearGradient><linearGradient id="linearGradient39601"><stop style="stop-color:#e29d66;stop-opacity:1" offset="0" id="stop39597"/><stop style="stop-color:#d77733;stop-opacity:1" offset="1" id="stop39599"/></linearGradient><linearGradient id="linearGradient35143"><stop style="stop-color:#e29d66;stop-opacity:1" offset="0" id="stop35139"/><stop style="stop-color:#d77833;stop-opacity:1" offset="1" id="stop35141"/></linearGradient><linearGradient id="linearGradient33410"><stop style="stop-color:#e29d66;stop-opacity:1" offset="0" id="stop33406"/><stop style="stop-color:#d77e34;stop-opacity:1" offset="1" id="stop33408"/></linearGradient><linearGradient id="linearGradient31224"><stop style="stop-color:#8e4e1c;stop-opacity:1" offset="0" id="stop31220"/><stop style="stop-color:#e29d66;stop-opacity:0" offset="1" id="stop31222"/></linearGradient><linearGradient id="linearGradient30258"><stop style="stop-color:#fdbaa0;stop-opacity:1" offset="0" id="stop30254"/><stop style="stop-color:#fdbaa0;stop-opacity:.90980392" offset=".367" id="stop30883"/><stop style="stop-color:#fdbaa0;stop-opacity:0" offset="1" id="stop30256"/></linearGradient><linearGradient id="linearGradient19398"><stop style="stop-color:#fff;stop-opacity:.80000001" offset="0" id="stop19394"/><stop style="stop-color:#fff;stop-opacity:0" offset="1" id="stop19396"/></linearGradient><linearGradient id="linearGradient15666"><stop style="stop-color:#fff;stop-opacity:.80000001" offset="0" id="stop15662"/><stop style="stop-color:#fff;stop-opacity:0" offset="1" id="stop15664"/></linearGradient><linearGradient xlink:href="#linearGradient19398" id="linearGradient15670" x1="113.246" y1="64.624" x2="117.254" y2="69.663" gradientUnits="userSpaceOnUse" gradientTransform="translate(-31.354 27.564)"/><linearGradient xlink:href="#linearGradient15666" id="linearGradient19402" gradientUnits="userSpaceOnUse" gradientTransform="matrix(-1 0 0 1 241.602 27.564)" x1="113.246" y1="64.624" x2="117.254" y2="69.663"/><linearGradient xlink:href="#linearGradient33410" id="linearGradient33412" x1="120.543" y1="150.283" x2="120.116" y2="157.288" gradientUnits="userSpaceOnUse"/><linearGradient xlink:href="#linearGradient35143" id="linearGradient35145" x1="91.209" y1="150.559" x2="91.724" y2="157.563" gradientUnits="userSpaceOnUse"/><linearGradient xlink:href="#linearGradient39601" id="linearGradient39603" x1="74.824" y1="172.437" x2="72.282" y2="180.109" gradientUnits="userSpaceOnUse"/><linearGradient xlink:href="#linearGradient39601" id="linearGradient42075" gradientUnits="userSpaceOnUse" x1="73.7" y1="171.804" x2="69.297" y2="179.987" gradientTransform="matrix(-1 0 0 1 209.826 .283)"/><linearGradient xlink:href="#linearGradient42084" id="linearGradient42086-1" x1="92.538" y1="177.676" x2="92.597" y2="196.798" gradientUnits="userSpaceOnUse" gradientTransform="rotate(46.356 191.436 85.442)"/><linearGradient xlink:href="#linearGradient4201" id="linearGradient4203" x1="100.709" y1="126.396" x2="119.68" y2="132.196" gradientUnits="userSpaceOnUse" gradientTransform="translate(-1.587 -.046)"/><linearGradient xlink:href="#linearGradient2400" id="linearGradient2402" x1="94.694" y1="160.767" x2="99.023" y2="157.457" gradientUnits="userSpaceOnUse"/><linearGradient xlink:href="#linearGradient2400" id="linearGradient2456" gradientUnits="userSpaceOnUse" x1="91.058" y1="161.918" x2="99.447" y2="156.245" gradientTransform="matrix(-1 0 0 1 375.335 -20.522)"/><radialGradient xlink:href="#linearGradient30258" id="radialGradient30260" cx="131.122" cy="122.588" fx="131.122" fy="122.588" r="2.549" gradientUnits="userSpaceOnUse" gradientTransform="matrix(1.91222 0 0 2.15327 -119.019 -142.484)"/><radialGradient xlink:href="#linearGradient30258" id="radialGradient30260-7" cx="131.122" cy="122.588" fx="131.122" fy="122.588" r="2.549" gradientUnits="userSpaceOnUse" gradientTransform="matrix(1.91222 0 0 2.15327 -172.694 -142.427)"/><radialGradient xlink:href="#linearGradient31224" id="radialGradient31226" cx="110.918" cy="-68.808" fx="110.918" fy="-68.808" r="18.455" gradientTransform="rotate(-.237 36385.16 5884.197) scale(1.16557 .21192)" gradientUnits="userSpaceOnUse"/><radialGradient xlink:href="#linearGradient31224" id="radialGradient31226-1" cx="99.383" cy="121.614" fx="99.383" fy="121.614" r="18.455" gradientTransform="matrix(.40011 -.01286 .0068 .2118 64.198 101.51)" gradientUnits="userSpaceOnUse"/><radialGradient xlink:href="#linearGradient2341" id="radialGradient2343" cx="104.135" cy="136.157" fx="104.135" fy="136.157" r="71.288" gradientUnits="userSpaceOnUse"/><radialGradient xlink:href="#linearGradient2551" id="radialGradient2555" cx="104.691" cy="148.893" fx="104.691" fy="148.893" r="13.593" gradientTransform="matrix(1.64193 .02649 -.01678 1.03984 -64.682 -10.929)" gradientUnits="userSpaceOnUse"/><radialGradient xlink:href="#linearGradient5754-1" id="radialGradient5756" cx="69.878" cy="43.432" fx="69.878" fy="43.432" r="37.982" gradientTransform="matrix(1.06442 0 0 .9586 -4.29 -1.322)" gradientUnits="userSpaceOnUse"/><radialGradient xlink:href="#linearGradient5339" id="radialGradient2296" gradientUnits="userSpaceOnUse" gradientTransform="matrix(1.06442 0 0 .9586 -4.29 -1.322)" cx="69.878" cy="43.432" fx="69.878" fy="43.432" r="37.982"/><radialGradient xlink:href="#linearGradient5754-1" id="radialGradient3836" gradientUnits="userSpaceOnUse" gradientTransform="matrix(1.06442 0 0 .9586 -4.29 -1.322)" cx="69.878" cy="43.432" fx="69.878" fy="43.432" r="37.982"/><radialGradient xlink:href="#linearGradient5754-1" id="radialGradient3838" gradientUnits="userSpaceOnUse" gradientTransform="matrix(1.06442 0 0 .9586 -4.29 -1.322)" cx="69.878" cy="43.432" fx="69.878" fy="43.432" r="37.982"/><radialGradient xlink:href="#linearGradient10131" id="radialGradient9161" cx="57.301" cy="42.385" fx="57.301" fy="42.385" r="9.281" gradientTransform="matrix(1 0 0 .8969 0 4.37)" gradientUnits="userSpaceOnUse"/><radialGradient xlink:href="#linearGradient10131" id="radialGradient9166" gradientUnits="userSpaceOnUse" gradientTransform="matrix(1 0 0 .8969 29.157 4.82)" cx="57.301" cy="42.385" fx="57.301" fy="42.385" r="9.281"/><radialGradient xlink:href="#linearGradient9195" id="radialGradient9197" cx="71.77" cy="43.42" fx="71.77" fy="43.42" r="28.616" gradientTransform="matrix(1 0 0 1.00423 0 -.184)" gradientUnits="userSpaceOnUse" spreadMethod="reflect"/><radialGradient xlink:href="#linearGradient13730" id="radialGradient13732" cx="104.227" cy="140.466" fx="104.227" fy="140.466" r="5.887" gradientTransform="matrix(1 0 0 1.00823 0 -1.157)" gradientUnits="userSpaceOnUse"/><radialGradient xlink:href="#linearGradient8582" id="radialGradient8584" cx="105.501" cy="101.289" fx="105.501" fy="101.289" r="28.015" gradientTransform="matrix(1 0 0 .0939 0 91.778)" gradientUnits="userSpaceOnUse"/><radialGradient xlink:href="#linearGradient6015" id="radialGradient6017" cx="75.052" cy="32.077" fx="75.052" fy="32.077" r="35.406" gradientTransform="matrix(1 0 0 .56548 0 13.938)" gradientUnits="userSpaceOnUse"/><radialGradient xlink:href="#linearGradient6015" id="radialGradient6751" cx="72.414" cy="59.201" fx="72.414" fy="59.201" r="34.129" gradientTransform="matrix(1 0 0 .57402 0 25.219)" gradientUnits="userSpaceOnUse"/><radialGradient xlink:href="#linearGradient16178" id="radialGradient16180" cx="71.879" cy="48.255" fx="71.879" fy="48.255" r="38.57" gradientTransform="matrix(1 0 0 .74987 0 12.07)" gradientUnits="userSpaceOnUse"/></defs><g id="layer1" transform="translate(-32.848 -64.87)" style="display:inline"><g id="layer2" style="display:inline" transform="rotate(10.193 -337.3 275.25)"><path style="display:inline;fill:#e29d66;fill-opacity:1;stroke:none;stroke-width:.600001;stroke-dasharray:none;stroke-opacity:1;paint-order:stroke fill markers" d="M74.253 97.64s-3.618 2.315-5.67 2.79c-2.711.629-5.611.49-8.347-.014-3.6-.664-7.104-2.054-10.265-3.899-4.094-2.39-7.799-5.537-10.934-9.093-2.864-3.248-5.434-6.908-6.991-10.949-.922-2.393-1.601-5.04-1.283-7.585.112-.894.366-1.942 1.095-2.472.645-.47 1.613-.462 2.382-.248 1.541.429 3.275 1.689 4.492 2.728 2.033 1.735 3.77 3.694 5.91 5.294 1.2.898 1.727 2.087 3.114 2.655 1.526.625 3.24.778 4.888.695 1.619-.083 4.358-1.36 4.358-1.36z" id="path42078-6-3"/><path style="display:inline;fill:url(#linearGradient42086-1);fill-opacity:1;stroke:none;stroke-width:.600001;stroke-dasharray:none;stroke-opacity:1;paint-order:stroke fill markers" d="M74.32 97.693s-3.619 2.315-5.67 2.79c-2.711.628-5.611.49-8.347-.015-3.6-.663-7.104-2.053-10.265-3.898-4.094-2.39-7.8-5.538-10.934-9.093-2.864-3.248-5.434-6.909-6.991-10.95-.922-2.392-1.601-5.04-1.283-7.584.112-.895.366-1.942 1.095-2.472.645-.47 1.612-.463 2.382-.249 1.541.43 3.274 1.69 4.492 2.728 2.033 1.735 3.77 3.695 5.91 5.295 1.2.897 1.727 2.087 3.114 2.655 1.526.625 3.24.778 4.888.694 1.619-.082 4.358-1.359 4.358-1.359z" id="path42078-6"/><path d="M72.18 95.517c-.494-.314 1.689 1.26.278 2.215-2.54 1.72-4.754 2.287-8.457 2.165-3.9-.128-7.364-1.007-11.083-2.811-10.098-4.897-17.976-13.24-20.923-22.516-1.256-3.954-1.011-6.237.067-7.26 1.412-1.338 2.923-1.753 7.655 2.86 4.206 4.098 5.91 6.13 9.25 7.245 1.76.587 4.45.65 5.384.124zM53.574 76.586c-.376.356-3.315.187-4.567-.262-.628-.225-1.796-1.375-3.023-2.097-1.922-1.13-2.607-1.955-5.788-5.059-.75-.732-1.568-1.449-2.275-1.963-1.183-.86-1.678-1.146-2.407-1.487-1.342-.628-3.139-.157-3.945.617-2.876 2.76-1.47 9.29 3.376 16.795 1.982 3.07 6.878 8.563 10.045 10.757 9.904 6.865 20.63 9.105 27.456 5.225l1.729-.983.8-2.851-20.216-19.244z" style="display:inline;fill:#000;stroke-width:.264583" id="path30886"/></g><path style="display:inline;fill:#e29d66;fill-opacity:1;stroke-width:.264583" d="M84.754 90.021c-.943-.024-1.605.074-2.55.553-3.56 1.804-4.53 4.689-2.154 7.645l1.15 1.38-1.337 1.905c-2.97 3.57-5.93 8.498-7.065 12.357l-.71 2.125c-.412 1.23-.381 1.992-.332 2.868.14 2.662-.376.37.194 4.34.474 1.229.094 1.094 1.24 3.507 1.003 2.175 3.886 4.913 7.002 6.832.04.024-.477 1.264-1.062 2.14-.585.876-1.712 2.52-2.58 4.31-.868 1.79-2.07 5.204-2.368 6.433-.262 1.08-.537 2.461-.84 4.207-.709 4.102-.794 9.816.135 12.893.305 1.01.522 2.4.463 2.495-.059.095-.667.56-1.58.663-2.949.332-6.648.994-7.87 1.633-2.889 1.514-3.223 5.307-.738 8.968 1.716 2.529 3.181 3.265 8.033 3.265 2.656 0 4.305-.143 12.182-1.387 13.173-2.059 15.085-1.397 26.223-1.553 2.905-.041 6.927.277 11.053.762 1.348.091 8.977 1.453 11.52 1.921 2.685.494 7.411.615 9.38.023 4.56-1.372 7.059-5.947 5.051-9.883-1.103-2.162-2.096-2.667-7.606-3.46-1.673-.24-3.646-.489-3.697-.537-.05-.048.196-1.514.534-3.015.771-3.418.79-9.403.09-13.11-.987-5.215-2.668-9.98-5.22-13.924-1.137-1.759-1.562-2.679-1.141-2.925 2.815-1.652 5.756-4.423 6.65-6.617.738-1.844.756-.967 1.188-3.394.297-2.785.084-1.774.314-3.023-.013-1.658-.45-3.333-.449-4.517-.06-.173-.413-1.283-.781-2.466-1.114-3.576-4.357-8.125-7.176-11.44-.639-.75-1.114-1.422-1.114-1.52 0-.099-.028-1.042.403-1.647 1.076-1.515 2.168-2.748 1.72-4.496-.463-1.811-1.27-2.556-3.109-3.557-1.667-.907-3.173-.776-4.641-.162-.936.39-1.413 1.627-1.801 2.647-.18.472-1.215.236-1.555.09-4.822-2.06-9.592-2.39-14.488-2.413-5.072-.024-9.264.405-15.031 2.358-.259.088-1.394-.045-1.727-.665-.282-.524-.943-1.327-1.527-1.756-.821-.398-1.463-.814-2.276-.853z" id="path6921-5"/><g id="g37910" style="display:inline"><path style="display:inline;fill:#fff;fill-opacity:.617021;stroke:none;stroke-width:.1;stroke-dasharray:none;stroke-opacity:.27234;paint-order:stroke fill markers" d="M72.007 118.682c.091-5.104 3.62-8.624 8.462-9.138 4.842-.514 5.543 3.01 10.45 2.703 4.906-.307 6.614-4.248 14.014-4.248 7.4 0 9.094 4.616 14.065 4.531 4.97-.084 4.312-2.804 8.84-2.527 5.85.357 9.11 2.635 10.132 8.405.566 3.193-1.192 9.008-3.289 11.481-2.343 2.765-6.048 3.996-9.52 5.04-.638.193-1.302.427-1.954.538a191.984 191.984 0 0 1-9.88 1.393c-5.34.62-10.694.84-16.196.169-4.268-.52-10.87-1.408-12.601-2.102-1.128-.453-7.816-3.02-10.026-6.073-2.86-4.102-2.581-5.445-2.497-10.172z" id="path17214"/><ellipse style="fill:url(#radialGradient30260-7);fill-opacity:1;stroke:none;stroke-width:.151672;stroke-dasharray:none;stroke-opacity:.27234;paint-order:stroke fill markers" id="path27302-2" cx="78.04" cy="121.539" rx="4.875" ry="5.49"/><ellipse style="fill:url(#radialGradient30260);fill-opacity:1;stroke:none;stroke-width:.151672;stroke-dasharray:none;stroke-opacity:.27234;paint-order:stroke fill markers" id="path27302" cx="131.715" cy="121.482" rx="4.875" ry="5.49"/></g><path style="display:inline;fill:#fff;fill-opacity:.62;stroke:none;stroke-width:.6;stroke-dasharray:none;stroke-opacity:.27234;paint-order:stroke fill markers" d="M86.603 135.489s.953 8.777.536 14.948c-.602 8.905-2.379 7.173-2.425 13.377-.052 6.879 11.251 9.702 21.014 9.674 8.139-.023 18.05-3.914 18.083-9.247.037-6.138-2.24-4.118-2.496-12.67-.182-6.094 2.04-16.118 2.04-16.118s-2.373.426-5.445.829c-3.149.413-7.029.806-9.694.995-3.437.244-7.645-.033-10.598-.218-2.952-.186-11.015-1.57-11.015-1.57Z" id="path19552"/><path style="display:inline;fill:url(#radialGradient31226-1);fill-opacity:1;stroke:none;stroke-width:.1;stroke-dasharray:none;stroke-opacity:.27234;paint-order:stroke fill markers" d="M100.318 126.459c-.305-.388 2.597.914 3.948.908 1.831-.007 4.584-1.167 5.343-1.275-.015.72-2.526 2.47-4.698 2.566-1.951-.04-3.575-.78-4.593-2.2z" id="path30977-9"/><path style="display:inline;fill:#000;stroke-width:.264583" d="M109.984 125.332c-.066.003-.182.085-.376.25-1.335 1.126-5.786 1.486-8.335.673-.691-.221-1.32-.3-1.396-.176-.167.27.68.752 2.124 1.206 2.797.88 8.029-.238 8.062-1.723.003-.156-.013-.233-.08-.23z" id="path2495"/><path style="display:inline;fill:#000;stroke-width:.264583" d="M82.444 112.908c-.054.008-.154.084-.31.213-1.17.97-1.453 3.497-.876 5.712.285 1.093.706 1.971 1.92 3.085 1.296 1.189 2.025 1.514 3.582 2.041 2.181.738 4.96.623 8.933-1.308 5.53-2.689 6.576-3.046 8.954-3.057 2.499-.012 3.752.365 7.979 2.397 4.038 1.94 4.2 1.907 6.309 2.346 4.576.953 8.94-1.959 9.925-6.34.395-1.756.125-3.406-.703-4.305l-.666-.722.153.661c.778 3.373.29 5.42-1.8 7.549-1.395 1.423-3.626 2.509-5.133 2.501-1.623-.009-4.186-.873-7.458-2.516-3.413-1.713-6.624-2.771-8.411-2.771-1.657 0-4.114.817-8 2.66-4.524 2.146-6.55 2.7-8.635 2.36-1.949-.317-4.197-1.835-5.248-3.544-.718-1.167-.988-1.767-.988-3.684 0-1.176.283-2.242.402-2.668.123-.444.162-.623.071-.61z" id="path2493"/><path style="display:inline;fill:#000;stroke-width:.264583" d="M104.483 109.109c-1.792.019-2.708.164-3.672.579-1.454.625-1.705 1.014-1.27 1.97.37.813 2.695 2.525 3.783 2.786 1.945.467 3.609.078 5.241-1.224.53-.423 1.103-1.108 1.275-1.523.28-.673.243-.819-.337-1.357-.987-.915-2.39-1.26-5.02-1.231z" id="path2491"/><path style="display:inline;fill:url(#linearGradient39603);fill-opacity:1;stroke:none;stroke-width:.600001;stroke-dasharray:none;stroke-opacity:1;paint-order:stroke fill markers" d="M63.268 169.087c-1.58 1.726-1.137 4.932-.388 7.15.489 1.446 2.048 2.738 3.402 3.445 3.439 1.795 7.801.553 11.672.301 2.472-.161 7.503-.24 10.276-1.707 5.087-3.305-7.908-10.055-11.31-11.601 0 0-10.696-.818-13.652 2.412z" id="path39448"/><path style="display:inline;fill:url(#linearGradient42075);fill-opacity:1;stroke:none;stroke-width:.600001;stroke-dasharray:none;stroke-opacity:1;paint-order:stroke fill markers" d="M146.559 169.37c1.58 1.726 1.045 4.719.296 6.936-.489 1.447-1.957 2.556-3.31 3.263-3.44 1.795-7.893.736-11.764.484-2.472-.161-7.29-.18-10.063-1.646-5.087-3.305 7.969-10.268 11.37-11.814 0 0 10.514-.453 13.47 2.777z" id="path39448-6"/><path style="display:inline;fill:#000;stroke-width:.264583" d="M84.683 89.517c-.943-.023-1.945.203-2.89.681-3.56 1.805-4.529 5.695-2.153 8.651l.799.994-1.314 1.578c-2.97 3.57-5.778 8.65-6.913 12.51l-.594 2.019-.814-.234a20.145 20.145 0 0 0-.851-.233c-.02 0-.098.235-.173.522-.107.407.06.593.762.846.975.353.979.363.733 2.154l-.166 1.214-1.223.08c-1.02.065-1.223.167-1.223.608 0 .46.163.523 1.247.487 1.375-.046 1.366-.057 1.652 2.056.16 1.172.134 1.233-.639 1.553-.89.37-1.205 1.516-.341 1.244 1.663-.524 1.558-.568 2.244.92 1.003 2.176 3.64 4.797 6.757 6.716.04.024-.407.76-.992 1.637-.585.876-1.607 2.344-2.475 4.134-.868 1.79-2.128 5.455-2.411 6.583-.253 1.006-.67 2.557-.972 4.303-.709 4.102-.677 10.144.252 13.22.305 1.01.486 1.921.427 2.016-.058.095-.853.257-1.766.36-2.95.331-6.392 1.133-7.612 1.772-2.89 1.514-3.248 6.09-.763 9.752 1.716 2.529 4.082 3.44 8.933 3.44 2.657 0 4.458-.213 12.335-1.457 6.937-.67 5.973-.87 17.026-1.477 5.648-.31 9.47-.09 12.666.128 2.874.196 5.306.364 7.04.602 2.408.331 9.275 1.538 11.818 2.006 2.685.494 7.493.393 9.462-.2 4.56-1.371 7.164-6.788 5.157-10.724-1.103-2.163-2.495-2.784-8.004-3.577-1.674-.24-3.085-.478-3.136-.526-.051-.048.184-1.315.523-2.816.77-3.418.825-9.075.124-12.783-.987-5.215-3.03-10.505-5.582-14.45-1.138-1.758-1.211-1.965-.79-2.212 2.815-1.652 5.487-4.422 6.38-6.616.412-1.01.587-1.19 1.026-1.051 1.673.525 2.228-.058.835-.88-.882-.52-.9-.564-.684-1.686.123-.633.228-1.3.234-1.482.008-.219.459-.33 1.335-.33 1.138 0 1.322-.073 1.322-.52 0-.424-.242-.553-1.3-.693l-1.3-.173-.089-1.448c-.087-1.416-.07-1.457.771-1.808.924-.386.938-.405.709-1.002-.116-.302-.335-.342-.94-.168-.55.158-.822.13-.9-.09-.061-.174-.413-1.284-.781-2.467-1.114-3.575-3.831-8.336-6.65-11.65-.639-.75-1.161-1.445-1.161-1.544 0-.098.352-.675.783-1.281 1.077-1.514 1.343-2.899.896-4.647-.464-1.812-1.2-2.711-3.04-3.712-1.667-.908-3.343-1.065-4.811-.451-.936.39-2.201 1.74-2.589 2.76-.18.472-.361.586-.702.44-4.822-2.06-9.863-2.696-14.92-2.752-5.257-.057-9.801.569-15.57 2.522-.258.088-.574-.197-.908-.817-.281-.524-.99-1.304-1.573-1.733-.708-.52-1.591-.794-2.534-.818zm.035 1.05c.729.005 1.4.2 1.909.6.756.594 1.663 2.221 1.987 2.401.595.33.448.728 1.796.255 8.09-2.832 19.434-3.11 26.804-.657 1.092.363 2.356.89 2.81 1.17.454.28.901.51.995.51.094 0 .45-.625.793-1.39 1.21-2.699 3.031-3.447 5.652-2.32 1.98.853 2.835 2.368 3.023 4.038.131 1.17-.335 2.258-1.437 3.228l-1.262 1.111 2.25 2.839c3.625 4.573 5.802 8.687 6.913 13.067 1.498 5.908.4 10.915-3.182 14.506-.883.886-2.09 1.915-2.68 2.287-1.214.765-4.934 2.36-6.73 2.884l-1.191.348.862.09c.475.05 1.812-.155 2.97-.455 1.16-.3 2.228-.546 2.376-.546.149 0 .634.645 1.079 1.434.529.93 1.172 1.74 1.631 2.68 1.402 2.871 2.597 5.82 3.392 8.965 1.556 6.16 1.496 13.873-.138 17.783-.228.546-.361 1.13-.297 1.299.065.169.872.377 1.794.464 4.091.385 7.503 1.088 8.645 1.783 1.052.64 1.658 1.984 1.672 3.706.012 1.602-.378 2.976-1.47 4.526-1.281 1.82-3.155 2.84-6.594 2.937-2.145.06-4.885-.31-8.514-.85-3.801-.747-7.873-1.416-11.736-1.777-12.501-1.17-24.693-.367-34.169.964l-7.408 1.055c-7.63 1.088-11.153.408-13.103-2.53-2.147-3.234-1.777-7.195.777-8.325 1.055-.467 6.359-1.451 8.754-1.625 1.285-.094 1.083-.27.376-3.65-.431-2.058-.813-2.85-.8-6.954.013-3.687.442-5.363.814-7.156.238-1.15.836-3.865 1.566-5.78.558-1.463.833-2.218 1.524-3.574.692-1.356 2.252-3.89 2.698-4.499l.812-1.108 1.4.485c.77.267 2.173.556 3.119.642 1.636.148 1.681.138.926-.225-1.47-.347-2.798-.998-4.056-1.463-4.654-1.696-8.077-5.294-9.315-9.79-.517-1.879-.463-5.917.11-8.202.55-2.196 2.332-6.62 3.106-7.714 1.463-2.535 3.206-4.957 5.091-7.213 1.103-1.303.828-1.567.077-2.256-.288-.264-.867-.729-1.178-1.386-.46-.969-.69-1.426-.492-2.659.2-1.25.613-1.7 1.634-2.635 1.053-.964 2.4-1.327 3.615-1.318z" id="path6921"/><path style="display:inline;fill:url(#linearGradient15670);fill-opacity:1;stroke:#dd8c4b;stroke-width:.1;stroke-dasharray:none;stroke-opacity:1;paint-order:stroke fill markers" d="M82.681 98.217c-.96-.65-1.754-1.53-1.964-2.497-.21-.966.238-1.932.913-2.68.676-.748 1.946-1.555 3-1.477 1.054.078 1.839.958 2.315 1.507.475.55.532.783 1.066 1.477-.182 1.319-4.704 4-5.33 3.67z" id="path12648"/><path style="display:inline;fill:url(#linearGradient19402);fill-opacity:1;stroke:#de8c4a;stroke-width:.1;stroke-dasharray:none;stroke-opacity:1;paint-order:stroke fill markers" d="M127.33 98.497c.96-.65 1.99-1.81 2.201-2.777.21-.966-.238-1.932-.913-2.68-.676-.748-1.946-1.555-3-1.477-1.054.078-1.925.785-2.4 1.335-.476.55-.662 1.192-.937 1.95.181 1.32 4.424 3.98 5.05 3.649z" id="path12648-6"/><path style="display:inline;fill:url(#radialGradient31226);fill-opacity:1;stroke:none;stroke-width:.1;stroke-dasharray:none;stroke-opacity:.27234;paint-order:stroke fill markers" d="M86.524 135.478s6.78 1.336 10.595 1.555c4.377.25 10.352.36 14.941-.066 3.899-.362 11.237-1.52 11.237-1.52s.117.033 0 .117c-.064.046-1.938 2.168-7.137 3.287-2.947.633-7.4.79-10.847.836-3.453.046-7.143-.537-8.322-.683-6.486-.806-10.624-3.301-10.624-3.301z" id="path30977"/><g id="right_eye" style="display:inline"><path style="fill:#000;stroke-width:.264583" d="M119.888 108.12a2.33 2.33 0 0 0-.296 0c-.272.017-.97.13-1.36.742-.6.942-.468 2.5.783 2.992 2.035.8 3.72-1.411 2.36-2.986a2.117 2.117 0 0 0-1.487-.749z" id="path2489"/><ellipse style="display:inline;fill:#f7e3d3;fill-opacity:1;stroke:#000;stroke-width:0;stroke-dasharray:none;stroke-opacity:.718644;paint-order:stroke fill markers" id="path1281-6" cx="119.613" cy="109.253" rx=".565" ry=".764"/></g><g id="left_eye" style="display:inline"><path style="fill:#000;stroke-width:.264583" d="M88.962 107.85c-.271.017-.97.13-1.36.743-.6.941-.468 2.5.783 2.992 2.035.8 3.721-1.411 2.361-2.986a2.123 2.123 0 0 0-1.784-.749z" id="path2487"/><ellipse style="display:inline;fill:#f7e3d3;fill-opacity:1;stroke:#000;stroke-width:0;stroke-dasharray:none;stroke-opacity:.718644;paint-order:stroke fill markers" id="path1281-6-7" cx="88.972" cy="109.022" rx=".565" ry=".764"/></g><g id="g6432" transform="translate(-.484 -8.219)" style="display:inline"><path style="fill:#191919;fill-opacity:1;stroke:none;stroke-width:1.764;stroke-dasharray:none;stroke-opacity:1;paint-order:stroke fill markers" d="M106.734 169.306s.495-.155.64.049c.114.16.189.426.038.525a421.45 421.45 0 0 0-3.748 2.542s-.485.099-.674-.129c-.143-.171.063-.57.063-.57 1.179-.93 2.41-1.594 3.68-2.417z" id="path5974"/><path style="fill:#191919;fill-opacity:1;stroke:none;stroke-width:1.764;stroke-dasharray:none;stroke-opacity:1;paint-order:stroke fill markers" d="M106.472 172.633s.462.237.639.06c.14-.138.258-.387.127-.51-.839-.785-3.265-3.14-3.265-3.14s-.46-.18-.686.013c-.17.145-.034.572-.034.572 1.005 1.116 2.105 1.98 3.22 3.005z" id="path5974-2"/></g></g><g id="layer4" transform="translate(-33.409 -64.308)" style="display:inline"><g id="Amadeus" transform="translate(-53.256 37.263) scale(.75442)" style="display:inline"><circle style="fill:#1b69bc;fill-opacity:1;stroke:#040d18;stroke-width:2.33821;stroke-dasharray:none;stroke-opacity:1;paint-order:stroke fill markers" id="path5543" cx="210.631" cy="152.738" r="17.735"/><path d="M214.787 158.645c-.98.386-3.355 1.157-5.105 1.157-1.9 0-3.324-.653-3.324-2.73 0-1.81.978-2.85 3.591-2.939l4.838-.178zm-2.731-16.592c-4.096 0-7.301 1.01-8.548 1.633l.98 3.443S207.634 146 210.72 146c2.642 0 4.007.742 4.007 3.354v1.484h-4.007c-6.796 0-8.815 3.116-8.815 6.56 0 4.57 3.562 6.024 6.797 6.024 3.77 0 5.966-1.573 6.233-1.573.208 0 .98.831 4.422.831v-14.543c0-4.363-2.7-6.085-7.301-6.085z" id="path22" style="fill:#fff;fill-opacity:1;fill-rule:nonzero;stroke:#dd8c4b;stroke-width:.0314935;stroke-opacity:1" clip-path="url(#clipPath5484)"/></g></g><g id="layer3" transform="translate(-32.848 -64.87)" style="display:inline"><g id="right_hand" style="display:inline"><path style="display:inline;fill:url(#linearGradient33412);fill-opacity:1;stroke-width:.264583" d="M130.41 151.738c-.289.221-1.764 1.253-2.101 1.566-5.466 5.09-13.39 5.462-16.587 2.406-.876-.837-1.263-2.695-.924-3.586.388-1.02 1.947-2.312 3.886-3.288 2.177-1.096 6.066-3.652 6.418-3.928.352-.276 1.188-.975 1.46-1.284.273-.31 1.787-1.927 1.96-2.901 1.087 3.178 4.207 6.152 5.888 11.015z" id="path2499-6"/><path style="fill:#000;stroke-width:.264583" d="M124.784 140.002c-.024.009-.07.094-.138.251-.135.309-.718 1.074-1.298 1.701-1.595 1.495-1.179 1.187-2.086 1.936-.777.567-2.129 1.458-4.746 3.01-.416.295-1.53.91-2.476 1.364-.946.455-1.875 1.13-2.17 1.383-.98.84-1.858 2.002-1.91 3.263-.005 1.802.583 2.593 1.135 3.208 1.1 1.308 2.715 1.98 4.016 2.186.211.05 1.337.085 2.5.077 2.205-.015 5.047-.757 7.358-1.922 2.455-1.238 5.74-3.955 5.74-4.749 0-.49-.584-.217-2.23 1.044-6.287 4.82-13.01 5.947-16.361 2.744-.876-.837-1.263-2.372-.924-3.263.388-1.02 1.796-2.334 3.735-3.31 2.177-1.096 6.174-3.673 6.526-3.95.352-.275 1.23-.995 1.503-1.305.273-.31 1.593-2.078 1.767-3.051.077-.433.099-.631.059-.617z" id="path2499"/></g><g id="left_hand" style="display:inline"><path style="display:inline;fill:url(#linearGradient35145);fill-opacity:1;stroke-width:.264583" d="M85.169 140.32c.7 2.336 2.446 3.555 2.835 3.88.318.294.885.817 1.31 1.102.383.333 4.371 2.778 5.813 3.433 3.996 1.817 5.043 4.677 2.595 6.993-1.286 1.216-3.476 1.952-5.905 1.747-3.08-.261-7.745-2.213-9.589-3.584-.246-.183-2.331-1.828-2.47-1.977.378-2.313 4.588-8.302 5.41-11.594z" id="path2497-8"/><path style="fill:#000;stroke-width:.264583" d="m84.903 139.692.182.662c.7 2.337 2.519 3.805 2.9 4.14.325.285.713.687 1.139.972.382.333 4.456 2.756 5.897 3.411 3.997 1.818 4.98 4.44 2.531 6.756-1.286 1.216-3.282 1.759-5.711 1.553-3.49-.295-6.188-1.422-9.972-4.167-2.293-1.664-2.49-1.757-2.49-1.177 0 .739 3.278 3.33 5.689 4.498 3.247 1.572 5.356 2.088 8.034 1.967 2.274.042 3.915-.756 5.429-2.139 1.113-1.177 1.253-1.402 1.486-2.9.305-1.719-1.616-3.956-4.61-5.34-1.81-.916-2.602-1.333-3.996-2.28l-1.02-.694c-.56-.37-1.362-.882-2.243-1.582-.428-.34-.524-.43-1.162-1.182-.635-.749-1.34-1.636-1.604-1.942z" id="path2497"/></g></g><g id="layer8" style="display:inline"><g id="g23990" transform="rotate(10.703 -153.783 -267.608)" style="display:inline"><g id="g21926"><path id="path21660" style="display:inline;fill:#d2be59;fill-opacity:1;stroke:none;stroke-width:.330999;stroke-dasharray:none;stroke-opacity:1" d="M128.467-44.787c5.36.168 10.99 1.041 15.61 3.923 5.25 3.7 8.03 10.285 7.835 16.599-1.968 2.514-5.776 2.295-8.65 2.913a165.414 165.414 0 0 1-37.609.08c-.704-2.95.115-6.41.818-9.423.91-4.037 3.7-7.276 7.166-9.415 4.067-2.868 8.922-4.67 13.93-4.625l.38-.035.52-.017zm23.55 21.776c.424 1.255.464 3.05 2.272 2.972 4.267 1.049 8.706 1.58 12.877 2.865 1.767.573 4.565.664 5.45 2.675-.838 2.591-3.712 4.068-6.156 4.926-3.088.879-6.306 1.75-9.511 1.61-3.998 1.828-8.553 1.55-12.878 1.782-17.432.443-35.081-.712-51.967-5.29-3.344-.884-6.853-2.32-9.206-4.913.05-.252-.145-.584.004-.765 1.229-1.488 6.047-2.372 7.042-2.6 4.94-.916 10.1-1.542 15.036-1.675 1.968 1.095 5.04.809 7.416 1.232 11.73.884 23.615.593 35.227-1.357 1.493-.342 3.098-.597 4.394-1.462zm-41.956.147c.315 1.204-.246 1.095 0 0zm1.955.334c.405.963-.194 1.2 0 0zm30.055.272c.15.724-.148.302 0 0z"/></g><path style="fill:#111;fill-opacity:1;stroke:#000;stroke-width:.4;stroke-dasharray:none;stroke-opacity:1" d="M119.402-19.77c-5.638-.165-10.906-.729-14.1-1.295-.714-.127-.069-.477-.58-.435-1.748.144-6.67.545-7.004.591-.19.026-.966.123-1.726.214-1.46.177-5.27.755-5.61.851-.11.032-.325.078-.477.103-1.026.171-3.145.75-3.87 1.058-.474.201-.99.388-1.145.415-.442.075-1.432.55-1.7.815-.239.238-.301.44-.275.9.019.34.719 1.007 1.912 1.82 1.158.79 2.097 1.332 3.578 2.07.69.343 3.776 1.283 5.688 1.733.538.126 1.082.27 1.208.317 1.127.426 8.887 1.898 10.705 2.166 2.667.392 5.081.771 6.02.901.506.042 3.023.312 3.475.366.687.066 1.436.144 2.072.217 2.016.23 8.47.637 11.683.737 1.076.033 2.32.081 2.762.107 1.092.063 10.985.066 11.095.004.048-.028.705-.058 1.46-.067 3.099-.039 8.607-.467 9.564-.744.2-.058.422-.168.491-.245.07-.077.39-.172.712-.21.321-.04.863-.216 1.203-.392.606-.314.636-.318 1.416-.207.696.099.985.08 2.276-.143.814-.14 1.557-.282 1.652-.313.095-.031.302-.077.46-.102a34.048 34.048 0 0 0 2.072-.467c.095-.03.276-.071.403-.093.642-.108 2.502-.749 3.365-1.16a10.33 10.33 0 0 0 3.015-2.105c1.463-1.436 1.698-2.088 1.01-2.807-.535-.56-1.349-.99-2.482-1.306a27.797 27.797 0 0 1-1.264-.378c-.258-.095-.959-.225-1.25-.232-.077-.002-.117-.037-.089-.079.028-.04-.117-.11-.321-.154a14.022 14.022 0 0 1-1.178-.292c-1.59-.437-3.66-.87-5.122-1.067-.792-.108-2.137-.405-2.532-.56-.71-.279-5.105-.826-5.296-1.457l-.699-2.307c-2.71 2.142-19.499 3.611-32.577 3.231zm33.74-1.45c1.163 1.284 4.194 1.562 4.89 1.767.885.261 1.844.497 2.128.524.576.053 3.046.53 4.029.776.348.088.71.176.806.197 1.491.328 4.892 1.33 5.691 1.679 1.098.477 1.963 1.141 2.09 1.603.11.405-.056.996-.414 1.474-.506.675-1.78 1.711-2.988 2.431-1.492.89-2.294 1.25-3.516 1.582-1.238.336-1.286.348-1.727.417-.19.03-1.484.3-2.877.601-2.405.52-2.569.541-3.26.434-.602-.094-.798-.085-1.15.053a36.46 36.46 0 0 1-1.288.455c-.474.16-1.07.36-1.323.447-.253.087-.83.188-1.28.226-.45.038-.917.085-1.036.106-.119.02-.605.072-1.08.114-.474.043-.94.09-1.036.106-.095.016-.742.06-1.438.096-1.729.09-2.853.164-3.741.245-.609.055-10.332.117-10.397.066h-.001c-.01-.008-.978-.046-2.149-.084-1.17-.038-2.284-.09-2.474-.114a41.732 41.732 0 0 0-1.9-.107c-.854-.036-1.864-.081-2.244-.102a291.7 291.7 0 0 0-2.34-.107c-.906-.038-1.76-.084-1.899-.104a36.12 36.12 0 0 0-.94-.105c-.38-.038-.846-.087-1.036-.108-.19-.021-.669-.015-1.112-.054-.443-.039-.656-.07-.985-.102-.423-.042-.705-.081-1.27-.122-1.271-.08-2.195-.194-3.427-.309-.158-.02-.68-.113-1.09-.15-.641-.056-1.34-.15-4.03-.544-1.012-.157-2.026-.356-2.96-.513a73.519 73.519 0 0 1-1.183-.206l-1.726-.33a178.329 178.329 0 0 1-4.95-1.05c-.095-.022-.69-.18-1.323-.352s-1.799-.485-2.59-.697c-3.397-.905-4.323-1.287-6.733-2.778-1.482-.916-2.556-1.765-2.944-2.327-.185-.268-.337-.54-.337-.604 0-.284.647-1.009.995-1.114.202-.061.426-.175.496-.254.071-.078.321-.175.556-.215.235-.04.842-.253 1.349-.473.907-.393 2.493-.876 3.28-.998.222-.035.532-.086.69-.114l.864-.155c.316-.056.705-.127.863-.157.55-.105.866-.156 1.266-.206.699-.087 3.62-.487 3.858-.529a23.32 23.32 0 0 1 1.207-.116c.538-.041 1.07-.092 1.182-.111.113-.02.565-.065 1.005-.1.44-.035.891-.08 1.004-.1.112-.02.903-.07 1.758-.11 1.482-.073 1.916-.157 2.094-.41.044-.062.083-.766.086-1.563.016-4.692 1.449-9.653 3.677-12.732.457-.63 1.432-1.607 2.144-2.144l.92-.696c.916-.692 2.955-2.055 3.934-2.629 3.252-1.907 7.185-3.118 9.99-3.075.635.01 1.325-.036 1.534-.1.492-.153 3.118-.086 4.454.113l.69.104c.19.029.579.08.863.114 1.13.134 4.54.902 6.02 1.356 1.965.602 3.047 1.06 4.19 1.77.923.573 2.96 2.347 3.555 3.097.184.233.396.482.47.555.075.073.525.694 1 1.382 2.125 3.078 3.351 7.025 3.588 11.548m-16.75 4.256c2.893-.365 14.247-.763 16.23-3.256.205-.258.31-.538.294-.844a51.067 51.067 0 0 0-.135-2.022c-.086-.776-.262-1.968-.335-2.271a69.198 69.198 0 0 1-.16-.687c-.192-.852-.695-2.45-.925-2.944-.13-.278-.237-.568-.237-.645 0-.186-1.224-2.345-1.886-3.326-.64-.946-2.26-2.754-2.961-3.302-1.194-.934-1.462-1.126-2.116-1.513-.38-.225-.872-.486-1.094-.581l-1.15-.492c-1.583-.673-4.88-1.517-7.31-1.87-.633-.091-1.28-.188-1.439-.214-1.153-.189-3.871-.284-4.661-.163-.317.049-1.197.114-1.957.145-1.265.051-1.773.102-2.244.224a8.197 8.197 0 0 1-.576.108c-.875.136-3.01.852-4.431 1.484-2.877 1.28-5.604 3.085-8.235 5.447-1.218 1.094-2.254 2.72-3.017 4.738a22.431 22.431 0 0 0-1.107 3.855c-.423 2.1-.59 3.764-.59 5.884 0 1.503-.007 1.451.243 1.577.142.072.425.075.615.087 9.856 1.003 18.768 1.224 29.183.581zM113.61-22.02c.043-.608.126-1.178.182-1.265.066-.1.08.014.04.317a25.41 25.41 0 0 0-.113 1.202c-.12 1.295-.151.345-.109-.254zm1.573.478c-.002-.29.035-.79.083-1.11l.087-.58.006.528c.002.29-.034.79-.082 1.11l-.088.58zm-8.772.264c0-.087.05-.23.112-.317.1-.14.112-.14.112 0 0 .087-.05.23-.112.317-.1.14-.112.14-.112 0zm1.548-.934c.024-.601.073-1.12.11-1.153.1-.093.051 1.57-.058 1.929-.061.202-.08-.078-.052-.776zm32.085.406c0-.203.024-.287.053-.185a.796.796 0 0 1 0 .37c-.03.101-.053.018-.053-.185zm-28.111-.335c0-.523.067-.504.16.044.04.234.022.396-.046.396-.063 0-.114-.198-.114-.44zm31.673.106a2.409 2.409 0 0 0-.095-.581c-.057-.148-.041-.166.065-.076.083.07.121.303.094.581-.042.437-.046.442-.064.076zm-1.61-.035c.002-.174.029-.233.058-.13a.569.569 0 0 1-.003.317c-.032.071-.055-.013-.053-.187zm-32.02-.317c0-.28.021-.49.047-.467.089.084.119.826.036.901-.046.042-.083-.153-.083-.434zm-3.518-.199c.031-.341.085-.646.119-.677.114-.106.058.98-.06 1.14-.082.112-.1-.023-.059-.463zm35.534-.065c0-.145.026-.205.058-.132a.375.375 0 0 1 0 .264c-.032.073-.058.013-.058-.132zm4.02.044c.006-.123.032-.148.07-.064.032.076.028.167-.01.203-.038.035-.065-.028-.06-.14zm-5.861-.15c0-.145.026-.204.058-.132a.375.375 0 0 1 0 .264c-.032.073-.058.014-.058-.132zm-28.133.041c-.074-.109.097-.44.182-.355.027.028.012.142-.032.254-.044.113-.112.158-.15.101zm35.693-.51c-.029-.337.002-.481.104-.481.08 0 .15.06.156.132.05.561.028.753-.086.788-.083.025-.147-.139-.174-.44zm-4.24.161c0-.111-.035-.286-.078-.387-.049-.116-.032-.159.044-.115.149.084.261.705.128.705-.052 0-.095-.092-.095-.203zm-1.535.027c-.043-.04-.075-.146-.074-.238.003-.137.026-.133.126.026.124.195.088.34-.053.212zm4.067-.352c0-.117.046-.212.104-.212.057 0 .077.095.044.212-.033.116-.08.21-.104.21-.025 0-.044-.094-.044-.21zm3.683-.793c0-.727.032-.897.172-.897.14 0 .173.17.173.897 0 .728-.033.898-.173.898-.14 0-.172-.17-.172-.898zm-39.652.687c.039-.058.094-.106.121-.106.028 0 .051.048.051.106 0 .058-.055.106-.121.106-.067 0-.09-.048-.051-.106zm-3.502-.379c.006-.123.033-.148.07-.063.033.076.029.167-.01.202-.038.035-.065-.027-.06-.139zm39.48-.633c.006-.123.032-.148.07-.064.032.076.028.167-.01.202s-.065-.027-.06-.138zm1.908-.228c-.036-.054-.098-.426-.138-.828-.04-.402-.124-.874-.188-1.048a4.395 4.395 0 0 1-.173-.818c-.047-.424-.028-.492.123-.44.202.072.247.257.465 1.892.138 1.032.103 1.526-.09 1.242zm-34.367-.195c.006-.123.033-.148.07-.064.033.077.029.168-.01.203-.038.035-.065-.027-.06-.139zm30.283-.654c.007-.48.037-.851.067-.824.116.107.142 1.205.034 1.445-.087.194-.11.048-.101-.62zm2.185.293c0-.145.026-.204.058-.132a.375.375 0 0 1 0 .264c-.032.073-.058.014-.058-.132zm-36.151-.061c.006-.123.033-.148.07-.064.033.076.029.167-.01.202-.038.036-.065-.027-.06-.138zm2.178-.073c0-.152.054-.306.12-.343.078-.045.092.035.04.23-.105.406-.16.444-.16.113zm1.381.128c0-.061.052-.082.115-.046.063.036.115.086.115.111 0 .026-.051.047-.115.047a.114.114 0 0 1-.115-.112zm-5.472-.19c.25-.722.397-1.085.349-.86a27.74 27.74 0 0 0-.129.66c-.04.218-.12.396-.18.396s-.078-.088-.04-.196zm2.047-.701a3.4 3.4 0 0 1 .087-.74c.08-.287.088-.292.093-.052.003.145-.036.477-.087.739l-.092.475-.001-.422zm2.181 0c.002-.175.029-.233.058-.13a.568.568 0 0 1-.003.316c-.032.072-.056-.012-.053-.186zm33.72-.37c0-.145.027-.205.059-.132a.375.375 0 0 1 0 .264c-.032.073-.058.013-.058-.132zm.912-.062c.006-.123.033-.148.07-.063.033.076.029.167-.01.202-.038.035-.065-.027-.06-.139zm-.062-.881c-.036-.054-.014-.128.051-.165.065-.036.117.008.117.098 0 .186-.069.213-.167.067zm-1.328-.648a.968.968 0 0 0-.099-.396 2.348 2.348 0 0 1-.17-.548c-.068-.36-.066-.363.088-.105.172.286.366 1.267.252 1.267-.04 0-.071-.098-.071-.218zm-1.495-.416c-.055-.716-.056-.718-.147-.802-.12-.11-.105-.254.025-.254.15 0 .262.606.206 1.114l-.047.418zm2.648-.237c0-.193.023-.208.113-.08.144.205.144.317 0 .317-.063 0-.114-.107-.113-.237zm-35.776-.555c.002-.174.028-.233.057-.13a.568.568 0 0 1-.003.317c-.031.071-.055-.013-.053-.187zm34.072-.373c-.077-.113-.138-.265-.135-.338.002-.074.084.001.182.166.202.342.164.482-.047.172zm1.525-.169a6.845 6.845 0 0 0-.12-.44c-.025-.076.001-.111.06-.078.127.072.284.682.196.763-.035.032-.096-.078-.136-.245zm5.954 21.075c.032-.089.373-.202.85-.283a130.28 130.28 0 0 0 2.236-.409c2.116-.405 2.109-.404 2.049-.238-.054.146-1.892.574-3.546.824-.474.072-1.038.159-1.252.193-.303.047-.378.028-.337-.087zm-.52-.905c-.19-.174.015-.23 1.448-.4.838-.1 1.91-.27 2.38-.378.83-.19 1.044-.19 1.044.001 0 .153-.66.295-2.666.577-2.138.3-2.1.298-2.207.2zm8.602-.474c-.091-.135.058-.3.268-.3.45 0 6.194-1.298 6.973-1.575.452-.162.776-.149.702.028-.08.191-2.45.813-5.285 1.386-.507.103-1.298.268-1.76.368-.461.1-.865.142-.898.093zm-52.36-.593c-.943-.17-1.054-.202-.966-.282.06-.055 2.294.332 2.382.413.103.094-.45.043-1.416-.13zm43.283-.016c-.12-.178 2.412-.726 2.77-.6.345.122.03.242-1.244.473-1.406.256-1.437.258-1.526.127zm-50.362-.511c-1.623-.293-1.842-.347-1.654-.412.072-.025.797.074 1.612.22.814.146 1.621.28 1.793.3.172.019.349.068.393.109.144.131-.667.05-2.144-.217zm4.405.085c-.521-.102-.974-.16-1.007-.13-.033.03-.06-.001-.06-.069s.016-.123.036-.123c.177 0 2.547.434 2.592.475.111.102-.62.03-1.56-.153zm53.894-.005c-.124-.184.058-.317.438-.32a4.67 4.67 0 0 0 .828-.108c.253-.058.693-.15.978-.204.285-.054.958-.196 1.496-.315s1.108-.243 1.266-.275c.159-.032.337-.103.398-.158.165-.15.408-.119.408.052 0 .084-.116.184-.259.223a7.47 7.47 0 0 0-.604.208c-.312.123-1.332.345-3.856.837-1.011.197-1.001.196-1.093.06zm-50.932-.282c-.617-.089-1.85-.38-1.801-.425.078-.071 2.187.295 2.313.402.112.096.022.1-.512.023zm-10.791-.44c-.776-.141-1.41-.303-1.41-.36 0-.058.117-.08.259-.05.142.029.725.134 1.295.233 1.147.2 1.537.309 1.374.382-.06.027-.743-.065-1.518-.206zm8.374.005c-.159-.022-.34-.088-.403-.145-.077-.07.04-.08.345-.03.253.041.477.087.497.103.086.067-.175.11-.44.072zm-5.813-.832c-1.076-.204-2.009-.421-2.072-.481-.078-.074-.024-.092.173-.054.158.03 1.023.2 1.922.379.9.178 1.897.338 2.216.354.319.017.58.066.58.11.001.156-.896.059-2.819-.308zm58.529.252c.095-.087.509-.206.92-.264.676-.095 2.208-.444 2.689-.613.123-.044.189-.012.189.09 0 .268-1.657.7-3.396.884-.512.055-.556.044-.402-.097zm-64.202-.175c-.398-.105-.76-.228-.805-.274-.046-.046.02-.049.147-.006.127.042.515.125.864.184.348.058.682.15.742.203.16.142-.116.11-.948-.107zm-1.197-.396c.083-.03.182-.027.22.008.039.035-.03.06-.15.056-.135-.005-.162-.03-.07-.064zm64.31-.025c-.033-.05.004-.136.083-.193.16-.116 2.743-.474 2.832-.393.145.134-.248.27-1.197.416-.568.088-1.173.182-1.344.21-.172.028-.34.01-.373-.04zm-65.238-.184a.482.482 0 0 1 .288 0c.079.03.014.053-.144.053-.159 0-.223-.024-.144-.053zm-.978-.222c-.333-.088-.605-.198-.605-.244 0-.046.169-.034.374.027.206.06.517.133.69.163.175.03.317.095.317.147 0 .113-.014.11-.776-.093zm11.25-.038c-.158-.058-.727-.197-1.266-.31-1.313-.272-1.841-.43-1.841-.55 0-.055.085-.07.189-.034.325.115 2.14.572 2.832.714.364.075.662.172.662.217 0 .108-.22.093-.575-.037zm-7.97-.442c-.3-.06-.547-.148-.547-.196 0-.049.013-.086.029-.084.016.003.417.094.892.204.894.206.59.268-.374.076zm8.64-.27c-.424-.095-.812-.215-.864-.267-.054-.056.027-.067.195-.028.158.038.611.12 1.007.185.396.065.749.16.784.212.087.13-.214.103-1.122-.102zm-10.31-.198c-.521-.149-.949-.306-.949-.35 0-.043.246-.008.547.08.3.087.741.207.978.266.238.06.432.15.432.2 0 .052-.013.09-.029.084l-.978-.28zm2.39-.527c-.41-.141-1.304-.565-1.094-.517.505.115 1.712.583 1.496.58a1.547 1.547 0 0 1-.403-.063z" id="path15610"/><path id="rect21564" style="fill:#1b69bc;fill-opacity:1;stroke:#114071;stroke-width:.4;stroke-dasharray:none;stroke-opacity:1" d="M105.566-21.46c-.197.424-.468.384-.068.421 1.404.13 4.906.702 10.058.9 5.06.195 8.413.398 15.715.066 8.431-.382 9.59-.658 14.343-1.292 1.734-.232 3.46-.524 4.65-1.13a8.1 8.1 0 0 0 1.562-1.037c.66-.56 1.083-.434 1.091.433l.029 3.093c.003.356-.216.83-.508 1.034-.91.64-2.997 1.894-6.014 2.458-4.831.903-6.527 1.351-14.987 1.524-7.702.157-10.57.374-15.483.003-4.158-.315-8.096-.88-10.197-1.211-.872-.138-1.585-.978-1.583-1.864v-.085c.001-.105.191-.358.194-.539.004-.231-.166-.502-.165-.643.004-.494-.004-.896.003-1.367.014-1.11 1.411-.873 1.36-.764z"/><path style="fill:#4a4114;fill-opacity:.495751;stroke:none;stroke-width:.330999;stroke-dasharray:none;stroke-opacity:1" d="M139.435-43.127s2.634.86 5.145 2.59c1.665 1.147 3.059 2.994 3.882 4.25.455.695 1.084 1.683 1.597 2.786.506 1.088.898 2.289 1.174 3.365.593 2.306.63 4.075.63 4.075s.016 1.457.356 1.996c.1.16.555-.089.624.086.087.22.248.445.255.77.011.526-.003 1.202.01 1.72.016.699.004 1.14.004 1.14s9.102 1.925 11.98 2.572c1.638.369 5.282 1.401 6.106 1.845.483.26.915.579 1.189.87.821.874-.604 2.162-1.28 2.813a11.945 11.945 0 0 1-2.434 1.766c-1.254.68-2.99 1.204-4.556 1.57-.57.133-1.919.424-3.515.75a13.41 13.41 0 0 1-2.094.217c-.419.006-.846-.076-1.097-.104-.056-.006-.51.107-.825.26a5.438 5.438 0 0 1-1.201.407c-.422.091-1.003.36-1.432.467-.88.22-2.675.362-2.675.362s-1.507.154-3.42.258a164.89 164.89 0 0 1-6.52.203c-2.998.031-8.994-.017-8.994-.017s7.34-.154 13.721-.696c4.826-.41 9.586-2.21 8.833-2.524-2.964-1.234-3.284-1.912-8.778-3.687a87.934 87.934 0 0 0-7.61-2.064s2.806-.379 5.528-.826c1.272-.208 2.523-.46 3.456-.711 1.186-.32 2.598-.902 2.598-.902s.493-.404.316-.738c-.221-.418.504-1.014.04-1.984-.447-.933-1.36-.654-1.756-1.113-.36-.417-.657-.738-.657-.738s-.528-6.784-1.72-9.922c-1.546-4.072-6.879-11.112-6.879-11.112z" id="path23914"/></g></g><style type="text/css" id="style45626">.st0{fill:#dd0031}</style></svg>